<svg width="140" height="140" viewBox="0 0 140 140" fill="none" xmlns="http://www.w3.org/2000/svg">
<circle cx="70" cy="70" r="70" fill="#EF5744"/>
<circle cx="70" cy="70" r="30" fill="white"/>
<path d="M84.4917 76.1166C85.6558 73.7508 86.1497 71.4024 85.9608 69.1359C85.7718 66.8694 84.8931 64.6208 83.3499 62.4549C81.7993 60.2786 79.5248 58.1127 76.5872 56.0172C75.5763 55.2954 73.6587 54.2791 71.6543 53.6361C69.8794 53.0674 67.3837 52.5892 65.5748 53.5455C64.0268 54.364 63.2654 56.0321 63.3113 58.5024C63.3549 60.9269 64.361 63.42 66.3829 66.1249C68.1163 68.4434 70.3755 70.622 72.369 72.5438C74.3066 74.4113 76.1369 76.1748 77.0981 77.698C77.1116 77.7199 78.4109 79.9007 77.6653 82.0727C77.1565 83.5601 75.8097 84.7268 73.663 85.547C68.9557 87.0445 64.1154 84.7688 60.8819 82.595C58.8173 81.2065 57.1258 79.6811 56.0642 78.6394C58.5643 79.1513 60.4382 78.7024 61.1865 78.4605C61.6098 78.9839 62.0597 79.4851 62.5342 79.9623C64.0443 81.4764 65.6878 82.5898 67.44 83.2831C67.5591 83.3303 67.692 83.328 67.8094 83.2769C67.9268 83.2258 68.0191 83.13 68.0661 83.0106C68.1131 82.8912 68.1109 82.758 68.0599 82.6403C68.0089 82.5226 67.9134 82.43 67.7943 82.3828C65.601 81.5154 63.5796 79.9265 61.7842 77.6613C61.7518 77.6033 61.7071 77.5531 61.6533 77.5143C61.5713 77.4316 60.5412 76.3112 60.2161 72.0499C61.556 74.1257 63.6481 76.3563 66.1176 78.3022C69.3694 80.8648 72.7058 82.4782 75.0426 82.6182C75.1062 82.6225 75.1699 82.6141 75.2302 82.5936C75.2905 82.573 75.3461 82.5407 75.3939 82.4985C75.4416 82.4563 75.4806 82.4051 75.5086 82.3477C75.5365 82.2904 75.5528 82.228 75.5566 82.1643C75.5604 82.1006 75.5516 82.0368 75.5307 81.9765C75.5098 81.9162 75.4772 81.8606 75.4347 81.813C75.3923 81.7654 75.3409 81.7267 75.2835 81.6991C75.2261 81.6716 75.1638 81.6556 75.1002 81.6523C72.9519 81.5237 69.817 79.9868 66.714 77.5401C63.6001 75.0863 61.1214 72.1899 60.0822 69.7926C60.0377 69.69 59.9591 69.6061 59.8599 69.5551C59.7606 69.5041 59.6468 69.4891 59.5378 69.5127C59.4288 69.5363 59.3313 69.5971 59.2619 69.6846C59.1925 69.7722 59.1555 69.8811 59.1572 69.9929C59.2314 74.5863 60.0137 76.7076 60.5534 77.6311C59.5468 77.8896 57.3627 78.216 54.6462 77.2374C54.5457 77.201 54.436 77.1992 54.3343 77.2321C54.2326 77.265 54.1446 77.3309 54.0843 77.4193C54.024 77.5077 53.9946 77.6138 54.0008 77.7207C54.0071 77.8277 54.0485 77.9296 54.1187 78.0104C54.1567 78.0541 54.5188 78.4684 55.1471 79.0983C56.2078 80.1618 58.0267 81.8395 60.3243 83.3855C62.4853 84.8405 64.6184 85.8712 66.6651 86.4478C69.2542 87.1788 71.7106 87.184 73.9654 86.4635C75.8463 85.8633 77.6073 84.7491 79.2011 83.151C81.5942 80.7598 83.3726 78.3918 84.4917 76.1166ZM77.9576 77.254C77.9489 77.2378 77.941 77.2242 77.9354 77.2159C77.9266 77.2002 77.921 77.1919 77.921 77.1919C76.9009 75.5706 75.0252 73.7626 73.0396 71.8482C68.9763 67.9311 64.371 63.4926 64.2781 58.4867C64.2397 56.4114 64.8279 55.0377 66.0268 54.4038C67.4047 53.675 69.478 53.9458 71.4466 54.5836C71.6412 55.0605 72.1094 56.4573 71.509 57.6542C71.0208 58.6284 69.9143 59.2728 68.221 59.5769C68.1585 59.5877 68.0987 59.6109 68.0451 59.645C67.9914 59.6791 67.9451 59.7235 67.9086 59.7756C67.8721 59.8277 67.8462 59.8865 67.8325 59.9486C67.8187 60.0107 67.8173 60.075 67.8283 60.1377C67.8393 60.2004 67.8625 60.2603 67.8965 60.3141C67.9306 60.3678 67.9749 60.4143 68.0269 60.4508C68.0789 60.4874 68.1375 60.5133 68.1995 60.5271C68.2615 60.541 68.3256 60.5424 68.3881 60.5314C69.9972 60.2449 71.1765 59.6609 71.9074 58.7916C73.6089 60.2107 76.424 62.7332 78.6465 65.5881C79.9947 67.3196 80.9258 68.9251 81.4136 70.3604C81.9742 72.0096 81.9476 73.4437 81.3346 74.6226C81.3043 74.679 81.2854 74.7409 81.2792 74.8047C81.2729 74.8685 81.2793 74.9329 81.2981 74.9942C81.3168 75.0554 81.3475 75.1124 81.3884 75.1616C81.4293 75.2109 81.4795 75.2515 81.5362 75.2812C81.5929 75.3108 81.6549 75.3289 81.7185 75.3343C81.7822 75.3397 81.8464 75.3324 81.9072 75.3128C81.9681 75.2931 82.0244 75.2616 82.073 75.2199C82.1216 75.1783 82.1614 75.1274 82.1902 75.0702C83.5353 72.483 82.599 69.0922 79.4075 64.9927C77.0881 62.0135 74.1513 59.3975 72.4266 57.967C72.9096 56.9039 72.7917 55.7836 72.5932 55.0014C73.9833 55.557 75.2324 56.2425 76.0265 56.8094C81.6248 60.8053 84.6427 64.9809 84.9965 69.2208C85.3456 73.4034 83.2417 77.7238 78.5676 82.4275C78.5728 82.4126 78.5785 82.3982 78.5833 82.3837C79.4105 79.9584 78.1854 77.649 77.9576 77.2518V77.254Z" fill="#EF5744"/>
<path d="M76.0876 21.2556C75.1327 21.1475 74.3261 20.8516 73.6677 20.3676C73.0137 19.8841 72.5366 19.2556 72.2365 18.4819C71.9413 17.7044 71.8518 16.8246 71.9678 15.8426C72.0823 14.8737 72.3712 14.0477 72.8344 13.3648C73.2977 12.6818 73.9041 12.178 74.6535 11.8533C75.403 11.5286 76.2618 11.421 77.23 11.5305C78.3182 11.6535 79.2104 12.0252 79.9067 12.6456C80.6079 13.2621 81.0189 14.0879 81.1396 15.1231L78.9916 15.3623C78.9328 14.7172 78.7287 14.2164 78.3792 13.8598C78.0343 13.5038 77.582 13.2941 77.0224 13.2308C76.485 13.17 76.0121 13.2486 75.6038 13.4667C75.1999 13.6852 74.8701 14.0199 74.6142 14.4709C74.3634 14.9181 74.1999 15.4632 74.124 16.1063C74.048 16.7494 74.0817 17.3212 74.225 17.8218C74.3689 18.318 74.612 18.7175 74.9543 19.0204C75.297 19.319 75.7282 19.4977 76.2479 19.5564C76.8075 19.6197 77.2967 19.5166 77.7157 19.2469C78.1346 18.9773 78.4465 18.5656 78.6515 18.012L80.7399 18.6775C80.3662 19.6304 79.7684 20.3289 78.9463 20.7731C78.1242 21.2173 77.1713 21.3781 76.0876 21.2556Z" fill="white"/>
<path d="M86.4686 23.4395C85.7794 23.2078 85.2228 22.8542 84.7989 22.3787C84.3792 21.9046 84.1136 21.3551 84.0022 20.7303C83.8922 20.1013 83.9585 19.4414 84.2011 18.7505C84.4452 18.0556 84.8075 17.4952 85.2879 17.0693C85.7699 16.6393 86.3246 16.3656 86.952 16.2482C87.5852 16.128 88.2463 16.1838 88.9355 16.4154C89.629 16.6485 90.1855 17.0022 90.6052 17.4762C91.0306 17.9476 91.2983 18.4978 91.4083 19.1268C91.5198 19.7516 91.4535 20.4115 91.2094 21.1065C90.9653 21.8015 90.6023 22.3639 90.1203 22.7939C89.6399 23.2198 89.083 23.4928 88.4499 23.613C87.8182 23.729 87.1578 23.6712 86.4686 23.4395ZM86.9522 22.0827C87.4215 22.2405 87.8591 22.1725 88.2648 21.8788C88.6762 21.5823 88.9981 21.1032 89.2306 20.4413C89.4645 19.7753 89.5116 19.2037 89.3719 18.7266C89.2364 18.251 88.9318 17.9335 88.4583 17.7743C87.9889 17.6166 87.5493 17.6838 87.1394 17.9761C86.7336 18.2699 86.4138 18.7498 86.1799 19.4158C85.946 20.0818 85.8968 20.6526 86.0323 21.1283C86.172 21.6054 86.4786 21.9235 86.9522 22.0827Z" fill="white"/>
<path d="M92.9576 25.6939L96.6055 19.5723L98.2741 20.524L97.433 21.9354L97.5445 21.6572C97.9747 21.3608 98.4323 21.1965 98.9173 21.1643C99.4045 21.1283 99.8934 21.2501 100.384 21.5299C100.871 21.8075 101.204 22.1421 101.385 22.5337C101.569 22.9276 101.623 23.3583 101.546 23.8259C101.47 24.2934 101.283 24.7766 100.985 25.2754L98.7628 29.005L97.0363 28.0203L99.1947 24.3983C99.4536 23.9638 99.5806 23.5856 99.5757 23.2638C99.5731 22.9383 99.3902 22.672 99.0272 22.4649C98.5984 22.2203 98.1554 22.2082 97.6982 22.4284C97.2448 22.6508 96.7974 23.1323 96.3561 23.8729L94.6841 26.6786L92.9576 25.6939Z" fill="white"/>
<path d="M102.784 32.0137C102.369 31.6808 102.131 31.3261 102.071 30.9496C102.017 30.5725 102.146 30.198 102.458 29.826L105.159 26.6051L104.361 25.9642L105.288 24.8584L106.086 25.4993L106.988 24.4239L108.84 25.2989L107.632 26.7394L108.668 27.5717L107.741 28.6775L106.704 27.8452L104.203 30.8278C104.109 30.9394 104.061 31.0279 104.058 31.0935C104.062 31.1584 104.117 31.2339 104.224 31.3199L105.08 32.0066L104.152 33.1123L102.784 32.0137Z" fill="white"/>
<path d="M107.423 36.4335C107.117 36.097 106.894 35.7343 106.756 35.3454C106.621 34.9535 106.595 34.5663 106.678 34.1838C106.763 33.8045 106.987 33.4578 107.347 33.1437C107.735 32.8063 108.163 32.6292 108.633 32.6125C109.103 32.5958 109.598 32.7355 110.119 33.0315C110.643 33.3246 111.174 33.7668 111.712 34.3581L112.39 35.1029L112.174 35.1325L112.485 34.862C112.842 34.5508 113.05 34.2559 113.107 33.9772C113.168 33.6957 113.065 33.4079 112.797 33.1139C112.542 32.8329 112.269 32.6842 111.978 32.6677C111.694 32.6516 111.397 32.7493 111.087 32.961L109.992 31.2444C110.343 31.0382 110.728 30.9284 111.147 30.915C111.572 30.9019 112.015 31.0076 112.477 31.2321C112.939 31.4566 113.401 31.8237 113.865 32.3333C114.29 32.8005 114.573 33.2627 114.714 33.7199C114.858 34.1742 114.835 34.633 114.646 35.0963C114.46 35.5629 114.082 36.0448 113.511 36.5422L111.673 38.1433C111.559 38.2422 111.497 38.3223 111.487 38.3837C111.48 38.4484 111.523 38.5314 111.615 38.6326L111.834 38.8728L110.742 39.8238L110.108 39.128C109.761 38.7458 109.593 38.3707 109.605 38.0027C109.624 37.6351 109.817 37.2913 110.184 36.9713L110.44 36.7488L110.571 37.0909C110.389 37.1735 110.179 37.2452 109.941 37.3061C109.703 37.3669 109.444 37.3878 109.163 37.3688C108.889 37.3501 108.604 37.2704 108.308 37.1297C108.012 36.989 107.717 36.7569 107.423 36.4335ZM108.828 35.9649C109.036 36.1936 109.274 36.3496 109.542 36.433C109.809 36.5163 110.096 36.5155 110.401 36.4307C110.711 36.3429 111.026 36.1594 111.346 35.8802L111.461 35.7798L110.899 35.1624C110.581 34.8128 110.286 34.5808 110.014 34.4662C109.746 34.3549 109.507 34.3196 109.299 34.3605C109.094 34.3984 108.928 34.4726 108.801 34.5832C108.701 34.6704 108.618 34.7835 108.553 34.9223C108.491 35.0643 108.473 35.2229 108.501 35.398C108.535 35.5734 108.644 35.7624 108.828 35.9649Z" fill="white"/>
<path d="M113.912 44.7709C113.52 44.1336 113.312 43.503 113.289 42.8789C113.267 42.2585 113.423 41.6796 113.755 41.1422C114.087 40.6048 114.588 40.1388 115.259 39.7443C115.925 39.352 116.579 39.1383 117.22 39.1032C117.861 39.068 118.455 39.2062 119.001 39.5177C119.551 39.8269 120.022 40.3002 120.414 40.9374C120.695 41.3947 120.872 41.8697 120.945 42.3625C121.019 42.8553 120.973 43.3365 120.808 43.8063C120.649 44.2775 120.355 44.708 119.927 45.0978L118.608 43.7151C118.997 43.3734 119.235 43.0296 119.32 42.6837C119.408 42.3356 119.351 41.9965 119.148 41.6667C118.869 41.2131 118.478 40.984 117.974 40.9793C117.473 40.9783 116.92 41.1559 116.314 41.512C115.713 41.866 115.299 42.2576 115.072 42.6869C114.849 43.114 114.88 43.558 115.163 44.0191C115.359 44.3377 115.622 44.5482 115.951 44.6506C116.286 44.7546 116.688 44.7376 117.156 44.5999L117.806 46.3073C117.385 46.4533 116.98 46.5156 116.591 46.4942C116.206 46.4706 115.846 46.3813 115.511 46.2264C115.182 46.0729 114.883 45.8711 114.614 45.6208C114.342 45.3728 114.107 45.0895 113.912 44.7709Z" fill="white"/>
<path d="M117.727 51.8C117.526 51.3133 117.491 50.8907 117.623 50.532C117.76 50.1758 118.057 49.9076 118.513 49.7274L122.461 48.1672L122.075 47.2303L123.43 46.6946L123.817 47.6315L125.135 47.1106L126.331 48.7466L124.565 49.4444L125.068 50.6611L123.712 51.1968L123.21 49.9801L119.554 51.4249C119.417 51.4789 119.331 51.534 119.296 51.5902C119.267 51.6488 119.279 51.7409 119.331 51.8666L119.745 52.8704L118.39 53.4061L117.727 51.8Z" fill="white"/>
<path d="M120.755 63.215C120.69 62.672 120.762 62.21 120.973 61.829C121.184 61.4523 121.504 61.1534 121.932 60.9324C122.36 60.7113 122.867 60.567 123.453 60.4995L127.836 59.9949L128.07 61.9367L123.92 62.4145C123.339 62.4815 122.917 62.6291 122.657 62.8573C122.4 63.085 122.297 63.4052 122.347 63.8179C122.376 64.0611 122.468 64.2839 122.623 64.4863C122.783 64.6925 123.024 64.8475 123.348 64.9512C123.671 65.0549 124.096 65.0764 124.625 65.0155L128.388 64.5822L128.621 66.524L121.428 67.3523L121.203 65.4757L122.888 65.2816L122.6 65.361C122.087 65.2087 121.666 64.9511 121.339 64.588C121.016 64.2287 120.822 63.771 120.755 63.215Z" fill="white"/>
<path d="M121.194 73.4438C121.231 72.9114 121.344 72.4148 121.534 71.954C121.727 71.4935 122.003 71.113 122.36 70.8126C122.717 70.5122 123.166 70.3363 123.708 70.285L123.944 72.0896C123.535 72.1017 123.218 72.2206 122.991 72.4465C122.769 72.6771 122.642 73.0172 122.611 73.4666C122.58 73.8986 122.645 74.2252 122.804 74.4464C122.968 74.6678 123.168 74.7865 123.404 74.8024C123.614 74.8164 123.8 74.7457 123.964 74.59C124.127 74.4388 124.253 74.1645 124.344 73.7672L124.496 73.1329C124.554 72.8825 124.626 72.6156 124.714 72.3321C124.805 72.0532 124.928 71.7919 125.085 71.5481C125.245 71.3046 125.456 71.1105 125.717 70.9658C125.978 70.8211 126.305 70.762 126.697 70.7883C127.175 70.8204 127.574 70.9722 127.896 71.2437C128.221 71.5199 128.458 71.8865 128.605 72.3436C128.756 72.801 128.812 73.3155 128.772 73.8871C128.735 74.4152 128.621 74.892 128.43 75.3175C128.243 75.7434 127.985 76.0922 127.657 76.3639C127.333 76.6403 126.943 76.807 126.486 76.864L126.236 75.0584C126.421 75.0401 126.597 74.9928 126.764 74.9163C126.93 74.8441 127.069 74.7241 127.179 74.5561C127.294 74.3885 127.362 74.1563 127.383 73.8596C127.406 73.5235 127.358 73.2507 127.238 73.041C127.118 72.8356 126.942 72.7251 126.71 72.7095C126.541 72.6982 126.399 72.7434 126.284 72.8453C126.169 72.9516 126.071 73.0985 125.991 73.286C125.915 73.4782 125.846 73.6949 125.784 73.9363L125.605 74.6609C125.517 75.032 125.382 75.3803 125.203 75.7058C125.027 76.036 124.789 76.2984 124.489 76.493C124.188 76.6877 123.806 76.7694 123.342 76.7383C122.829 76.7038 122.406 76.5373 122.073 76.2387C121.74 75.9445 121.498 75.5534 121.349 75.0654C121.204 74.5822 121.152 74.0416 121.194 73.4438Z" fill="white"/>
<path d="M123.803 86.9608L125.037 86.1286L125.809 87.6494L126.639 86.2245L127.818 87.1136L126.554 88.3043L128.247 88.6406L127.749 90.0135L126.218 89.232L126.431 90.9417L124.945 90.8998L125.218 89.282L123.641 89.9813L123.219 88.5749L125.118 88.3214L123.803 86.9608Z" fill="white"/>
<path d="M111.559 99.7117C112.133 98.957 112.798 98.4218 113.556 98.1063C114.311 97.7943 115.106 97.7047 115.941 97.8376C116.777 97.9767 117.6 98.341 118.411 98.9307C119.211 99.5125 119.798 100.171 120.17 100.905C120.543 101.639 120.685 102.405 120.597 103.202C120.51 103.999 120.175 104.781 119.594 105.546C118.94 106.406 118.165 106.976 117.268 107.255C116.371 107.541 115.435 107.475 114.458 107.06L115.321 105.12C115.922 105.393 116.467 105.471 116.957 105.354C117.445 105.24 117.857 104.961 118.193 104.519C118.516 104.094 118.683 103.654 118.694 103.199C118.703 102.748 118.572 102.301 118.301 101.859C118.03 101.422 117.63 101.011 117.099 100.625C116.568 100.239 116.045 99.9814 115.53 99.8523C115.019 99.7259 114.544 99.7319 114.104 99.8702C113.669 100.011 113.295 100.287 112.983 100.698C112.647 101.14 112.493 101.606 112.522 102.096C112.551 102.586 112.759 103.056 113.147 103.507L111.513 104.942C110.856 104.149 110.537 103.293 110.556 102.375C110.574 101.456 110.908 100.568 111.559 99.7117Z" fill="white"/>
<path d="M104.43 107.425C104.979 106.956 105.57 106.66 106.203 106.538C106.832 106.418 107.451 106.467 108.06 106.684C108.673 106.905 109.224 107.29 109.715 107.84C110.209 108.394 110.525 108.98 110.663 109.6C110.804 110.223 110.77 110.83 110.561 111.421C110.352 112.018 109.972 112.55 109.424 113.019C108.871 113.491 108.28 113.787 107.651 113.906C107.021 114.032 106.4 113.985 105.788 113.765C105.179 113.547 104.627 113.162 104.133 112.609C103.639 112.055 103.322 111.467 103.181 110.844C103.044 110.224 103.079 109.616 103.289 109.019C103.501 108.425 103.881 107.894 104.43 107.425ZM105.391 108.512C105.017 108.831 104.859 109.236 104.917 109.726C104.975 110.223 105.239 110.735 105.709 111.262C106.183 111.793 106.666 112.118 107.158 112.237C107.647 112.359 108.08 112.259 108.457 111.937C108.831 111.618 108.991 111.211 108.936 110.718C108.878 110.227 108.613 109.717 108.139 109.186C107.666 108.656 107.184 108.33 106.695 108.207C106.203 108.088 105.768 108.189 105.391 108.512Z" fill="white"/>
<path d="M99.2034 111.806L102.817 117.947L101.143 118.89L100.31 117.474L100.502 117.707C100.55 118.219 100.468 118.689 100.256 119.117C100.045 119.549 99.6942 119.903 99.2022 120.18C98.714 120.455 98.2513 120.572 97.8142 120.53C97.3732 120.491 96.9645 120.323 96.5881 120.025C96.2116 119.727 95.8762 119.328 95.5817 118.828L93.3799 115.086L95.1118 114.111L97.2501 117.744C97.5066 118.18 97.7788 118.476 98.0666 118.632C98.3566 118.791 98.6837 118.769 99.0479 118.563C99.478 118.321 99.7091 117.951 99.7412 117.454C99.7695 116.958 99.5651 116.339 99.1278 115.596L97.4714 112.782L99.2034 111.806Z" fill="white"/>
<path d="M88.7048 117.002C89.2065 116.816 89.6392 116.791 90.0028 116.928C90.3638 117.07 90.6314 117.366 90.8056 117.816L92.3136 121.712L93.2795 121.354L93.7972 122.692L92.8314 123.05L93.3348 124.351L91.6369 125.485L90.9624 123.742L89.708 124.207L89.1903 122.869L90.4447 122.405L89.0482 118.797C88.996 118.662 88.9415 118.577 88.8849 118.541C88.8257 118.512 88.7313 118.521 88.6016 118.569L87.5668 118.953L87.0491 117.615L88.7048 117.002Z" fill="white"/>
<path d="M82.4445 118.736C82.8955 118.645 83.3278 118.638 83.7412 118.716C84.1556 118.798 84.5112 118.969 84.8082 119.231C85.1009 119.494 85.2959 119.856 85.3933 120.319C85.4979 120.816 85.4401 121.267 85.2197 121.674C84.9994 122.08 84.6279 122.429 84.1052 122.722C83.5835 123.019 82.9264 123.248 82.1338 123.407L81.1354 123.609L81.2171 123.411L81.3009 123.81C81.3974 124.268 81.5545 124.591 81.7722 124.78C81.9908 124.972 82.2971 125.029 82.6912 124.95C83.0678 124.874 83.3361 124.717 83.496 124.479C83.6525 124.247 83.7148 123.946 83.6828 123.578L85.7499 123.509C85.7567 123.91 85.6611 124.291 85.4633 124.652C85.262 125.019 84.9465 125.342 84.5167 125.62C84.087 125.899 83.5305 126.107 82.8474 126.245C82.2212 126.371 81.6706 126.379 81.1956 126.269C80.7215 126.164 80.3268 125.915 80.0115 125.523C79.6918 125.132 79.4548 124.57 79.3006 123.838L78.8042 121.479C78.7735 121.333 78.7335 121.241 78.6842 121.202C78.6305 121.164 78.5357 121.158 78.4 121.185L78.0781 121.25L77.7832 119.849L78.7159 119.661C79.2283 119.558 79.6442 119.604 79.9636 119.799C80.2795 119.998 80.4871 120.334 80.5863 120.805L80.6553 121.133L80.2867 121.073C80.3048 120.878 80.3466 120.664 80.4118 120.432C80.4771 120.2 80.5885 119.97 80.7458 119.741C80.8997 119.518 81.1129 119.317 81.3855 119.137C81.658 118.957 82.011 118.823 82.4445 118.736ZM82.1556 120.161C81.8491 120.223 81.592 120.346 81.3844 120.531C81.1768 120.715 81.034 120.958 80.9559 121.26C80.8788 121.566 80.8835 121.924 80.9701 122.336L81.0012 122.483L81.8288 122.317C82.2974 122.222 82.6504 122.089 82.8879 121.916C83.121 121.744 83.2716 121.559 83.3397 121.362C83.4088 121.17 83.4261 120.992 83.3919 120.829C83.3648 120.701 83.3062 120.574 83.216 120.45C83.1215 120.326 82.9899 120.232 82.8211 120.167C82.6489 120.108 82.4271 120.106 82.1556 120.161Z" fill="white"/>
<path d="M71.8271 120.054C72.5871 120.041 73.2491 120.18 73.8132 120.473C74.3729 120.765 74.8074 121.186 75.1168 121.737C75.4261 122.287 75.5876 122.945 75.6012 123.71C75.6147 124.471 75.4766 125.132 75.187 125.692C74.8973 126.253 74.478 126.686 73.929 126.993C73.38 127.304 72.7256 127.466 71.9657 127.479C71.4203 127.489 70.9112 127.401 70.4384 127.217C69.9656 127.032 69.5627 126.752 69.2296 126.378C68.8922 126.007 68.6581 125.543 68.5275 124.985L70.4114 124.559C70.5187 125.061 70.7041 125.434 70.9678 125.679C71.2316 125.928 71.5602 126.049 71.9536 126.043C72.4945 126.033 72.8931 125.817 73.1493 125.392C73.4012 124.968 73.5209 124.41 73.5087 123.719C73.4965 123.033 73.3571 122.486 73.0905 122.079C72.824 121.677 72.4159 121.481 71.866 121.49C71.4861 121.496 71.1684 121.613 70.9131 121.841C70.6534 122.073 70.4673 122.421 70.3549 122.887L68.5184 122.584C68.6002 122.154 68.7478 121.779 68.9612 121.461C69.1748 121.146 69.434 120.886 69.7388 120.68C70.0393 120.478 70.3675 120.325 70.7234 120.223C71.0793 120.117 71.4472 120.06 71.8271 120.054Z" fill="white"/>
<path d="M63.6479 119.77C64.1792 119.843 64.5708 120.025 64.8226 120.316C65.0694 120.61 65.1587 120.996 65.0905 121.472L64.4998 125.598L65.5226 125.738L65.3198 127.155L64.297 127.015L64.0998 128.392L62.0537 128.589L62.3179 126.743L60.9896 126.561L61.1923 125.145L62.5206 125.327L63.0676 121.506C63.088 121.363 63.0821 121.263 63.0497 121.206C63.0122 121.152 62.9248 121.116 62.7876 121.097L61.6917 120.947L61.8945 119.53L63.6479 119.77Z" fill="white"/>
<path d="M52.0245 116.637C52.5379 116.853 52.9107 117.145 53.1427 117.514C53.3707 117.881 53.4756 118.302 53.4574 118.775C53.4393 119.248 53.3137 119.75 53.0806 120.28L51.3379 124.247L49.5019 123.475L51.1519 119.719C51.3832 119.193 51.4629 118.762 51.3911 118.427C51.3175 118.096 51.0856 117.849 50.6954 117.685C50.4654 117.588 50.2221 117.555 49.9655 117.585C49.703 117.617 49.4452 117.745 49.1919 117.967C48.9386 118.189 48.707 118.539 48.4968 119.017L47.0004 122.423L45.1644 121.65L48.0248 115.14L49.7992 115.887L49.1291 117.412L49.2025 117.128C49.5939 116.769 50.0321 116.542 50.5171 116.446C50.9963 116.352 51.4987 116.416 52.0245 116.637Z" fill="white"/>
<path d="M42.8288 111.94C43.2812 112.238 43.6641 112.582 43.9772 112.973C44.2879 113.367 44.4868 113.791 44.574 114.244C44.6612 114.697 44.5921 115.165 44.3667 115.649L42.6512 114.947C42.8451 114.595 42.8987 114.266 42.812 113.961C42.7192 113.657 42.4818 113.38 42.0998 113.128C41.7326 112.886 41.4113 112.778 41.1359 112.802C40.858 112.83 40.6529 112.94 40.5206 113.132C40.4032 113.303 40.3726 113.496 40.4286 113.712C40.481 113.926 40.6603 114.171 40.9665 114.446L41.4518 114.892C41.6444 115.067 41.8444 115.262 42.0517 115.477C42.2529 115.694 42.4223 115.93 42.56 116.184C42.6952 116.442 42.7615 116.717 42.7589 117.011C42.7563 117.304 42.6452 117.611 42.4255 117.93C42.1583 118.318 41.8242 118.581 41.423 118.717C41.0157 118.855 40.5729 118.872 40.0947 118.768C39.6141 118.667 39.1308 118.457 38.645 118.137C38.1962 117.842 37.8313 117.506 37.5503 117.132C37.2668 116.76 37.087 116.368 37.0108 115.954C36.9283 115.541 36.9761 115.127 37.1541 114.711L38.877 115.403C38.8006 115.569 38.7546 115.742 38.7389 115.921C38.7195 116.098 38.7565 116.276 38.8499 116.453C38.9408 116.634 39.1124 116.808 39.3646 116.974C39.6501 117.162 39.9157 117.258 40.1612 117.261C40.403 117.262 40.5888 117.169 40.7186 116.98C40.8135 116.842 40.8445 116.699 40.8117 116.551C40.7752 116.4 40.6941 116.244 40.5684 116.082C40.4364 115.921 40.2791 115.755 40.0964 115.581L39.5445 115.068C39.2605 114.807 39.0194 114.519 38.8212 114.204C38.6168 113.89 38.5036 113.557 38.4817 113.205C38.4597 112.853 38.5786 112.489 38.8383 112.111C39.1254 111.694 39.4844 111.419 39.9153 111.286C40.3425 111.151 40.8094 111.142 41.316 111.26C41.8164 111.378 42.3207 111.605 42.8288 111.94Z" fill="white"/>
<path d="M29.5581 107.389L29.6805 108.85L27.9479 108.747L28.797 110.161L27.4214 110.718L26.9963 109.052L25.8547 110.32L24.8861 109.214L26.3419 108.305L24.7208 107.633L25.4987 106.394L26.7961 107.432L26.9625 105.746L28.4194 106.089L27.6972 107.826L29.5581 107.389Z" fill="white"/>
<path d="M24.3414 90.6423C24.7247 91.5047 24.8674 92.3359 24.7696 93.1359C24.67 93.9319 24.3533 94.6509 23.8196 95.2929C23.28 95.9326 22.5469 96.4495 21.6203 96.8437C20.706 97.2327 19.8307 97.4023 18.9945 97.3526C18.1582 97.3029 17.4086 97.0423 16.7456 96.5708C16.0826 96.0992 15.5568 95.4262 15.1682 94.5517C14.7314 93.569 14.6127 92.6274 14.8122 91.7269C15.0057 90.8242 15.53 90.0622 16.3849 89.4409L17.6736 91.1392C17.1326 91.5125 16.792 91.9364 16.6519 92.4109C16.51 92.8815 16.5514 93.3695 16.776 93.8749C16.9917 94.3603 17.2984 94.7211 17.6959 94.9574C18.0917 95.1897 18.5531 95.301 19.0802 95.2914C19.6015 95.2796 20.1655 95.1445 20.7723 94.8864C21.3791 94.6283 21.8679 94.313 22.2387 93.9407C22.6054 93.57 22.8368 93.1639 22.9331 92.7223C23.0252 92.2825 22.967 91.8279 22.7584 91.3586C22.5338 90.8532 22.1972 90.4908 21.7487 90.2714C21.3002 90.052 20.7797 89.9944 20.1874 90.0985L19.7287 87.997C20.7587 87.8355 21.6763 87.9913 22.4813 88.4644C23.2864 88.9376 23.9064 89.6635 24.3414 90.6423Z" fill="white"/>
<path d="M21.067 80.7399C21.2071 81.4396 21.173 82.088 20.9646 82.6851C20.7553 83.2779 20.4022 83.778 19.9052 84.1853C19.4038 84.5934 18.7867 84.8677 18.054 85.0082C17.3169 85.1495 16.6397 85.1234 16.0223 84.9298C15.4005 84.737 14.8806 84.4043 14.4624 83.9318C14.0391 83.4558 13.7573 82.868 13.6172 82.1683C13.4761 81.4644 13.5103 80.816 13.7196 80.2232C13.9236 79.6269 14.2763 79.1247 14.7777 78.7165C15.2747 78.3092 15.8918 78.0349 16.6288 77.8936C17.3659 77.7523 18.0454 77.778 18.6671 77.9708C19.2845 78.1644 19.8049 78.4992 20.2283 78.9752C20.6473 79.452 20.9268 80.0403 21.067 80.7399ZM19.6244 81.0098C19.529 80.5334 19.2497 80.1969 18.7867 80.0004C18.3184 79.8005 17.7332 79.7678 17.0312 79.9024C16.3249 80.0379 15.7956 80.2842 15.4435 80.6414C15.0905 80.9944 14.9621 81.4112 15.0584 81.892C15.1539 82.3684 15.4335 82.707 15.8975 82.9078C16.3605 83.1043 16.9452 83.1348 17.6516 82.9994C18.358 82.864 18.8877 82.6198 19.2407 82.2668C19.5928 81.9096 19.7207 81.4906 19.6244 81.0098Z" fill="white"/>
<path d="M19.8107 74.0991L12.5679 74.0871L12.5712 72.1975L14.2411 72.2003L13.9392 72.2457C13.4612 72.0306 13.0862 71.726 12.8141 71.3318C12.5376 70.9377 12.3998 70.4629 12.4008 69.9074C12.4017 69.3563 12.5299 68.906 12.7854 68.5565C13.0408 68.2026 13.3945 67.9407 13.8464 67.7709C14.2982 67.6011 14.8192 67.5166 15.4094 67.5176L19.8221 67.5249L19.8187 69.4801L15.5334 69.473C15.0192 69.4722 14.6212 69.5546 14.3392 69.7203C14.0528 69.8861 13.9093 70.1745 13.9085 70.5857C13.9077 71.0712 14.1194 71.4521 14.5437 71.7284C14.9679 72.0003 15.6182 72.1369 16.4945 72.1384L19.8141 72.1439L19.8107 74.0991Z" fill="white"/>
<path d="M20.4622 62.5772C20.3763 63.0953 20.182 63.4743 19.8795 63.7143C19.5733 63.9493 19.1775 64.0283 18.6921 63.9512L14.4885 63.2839L14.3231 64.2812L12.88 64.0521L13.0454 63.0548L11.642 62.832L11.4855 60.8264L13.3655 61.1248L13.5804 59.8295L15.0235 60.0587L14.8086 61.3539L18.701 61.9719C18.8467 61.995 18.9492 61.9913 19.0086 61.9609C19.0643 61.9254 19.1033 61.8408 19.1255 61.7069L19.3027 60.6383L20.7458 60.8674L20.4622 62.5772Z" fill="white"/>
<path d="M22.0447 56.4249C21.9002 56.8526 21.6905 57.2225 21.4156 57.5344C21.1365 57.8449 20.8069 58.0608 20.4269 58.1821C20.0483 58.2992 19.6298 58.2836 19.1713 58.1354C18.6789 57.9761 18.3078 57.7018 18.0579 57.3124C17.8081 56.9229 17.6838 56.4336 17.6851 55.8443C17.6822 55.2537 17.8077 54.5826 18.0616 53.8308L18.3815 52.8839L18.5156 53.0517L18.1208 52.924C17.6666 52.7771 17.3017 52.749 17.0263 52.8396C16.7466 52.9288 16.5436 53.1603 16.4173 53.5341C16.2966 53.8912 16.3017 54.1969 16.4324 54.4511C16.5603 54.6998 16.7955 54.9025 17.1381 55.0593L16.1672 56.8461C15.809 56.6519 15.5191 56.3808 15.2977 56.0328C15.0734 55.6793 14.945 55.2508 14.9126 54.7474C14.8802 54.244 14.9734 53.6684 15.1923 53.0205C15.393 52.4266 15.6604 51.9556 15.9945 51.6076C16.3245 51.2583 16.7417 51.0477 17.2463 50.9759C17.7522 50.8999 18.3681 50.9793 19.094 51.214L21.4309 51.9697C21.5752 52.0164 21.6771 52.0286 21.7364 52.0063C21.7971 51.9799 21.8492 51.9023 21.8927 51.7735L21.9959 51.4683L23.384 51.9172L23.0851 52.8018C22.921 53.2877 22.673 53.6175 22.3412 53.7912C22.0065 53.9594 21.6057 53.968 21.1388 53.817L20.814 53.712L21.0508 53.4292C21.2151 53.5423 21.3837 53.6843 21.5567 53.8554C21.7296 54.0265 21.8779 54.2357 22.0015 54.483C22.1223 54.7247 22.1945 55.006 22.2179 55.3269C22.2414 55.6477 22.1836 56.0137 22.0447 56.4249ZM20.9267 55.4691C21.025 55.1784 21.044 54.8989 20.984 54.6307C20.9239 54.3625 20.7798 54.1201 20.5516 53.9035C20.3191 53.6856 19.9992 53.5107 19.5916 53.3789L19.4452 53.3315L19.18 54.1165C19.0299 54.5609 18.9722 54.9269 19.0068 55.2145C19.0429 55.4979 19.1311 55.7176 19.2715 55.8736C19.4076 56.0282 19.5563 56.1316 19.7177 56.1837C19.845 56.2249 19.9864 56.2384 20.1419 56.2242C20.2988 56.2058 20.4478 56.1411 20.5889 56.0301C20.7271 55.9136 20.8398 55.7266 20.9267 55.4691Z" fill="white"/>
<path d="M26.1825 46.7618C25.8137 47.412 25.3588 47.9028 24.8178 48.2344C24.2791 48.5622 23.6888 48.7194 23.0469 48.706C22.4051 48.6927 21.7422 48.5002 21.0581 48.1288C20.3779 47.7594 19.8623 47.3118 19.5112 46.786C19.1601 46.2601 18.9862 45.6879 18.9894 45.0694C18.9887 44.4487 19.1728 43.8132 19.5417 43.1631C19.8064 42.6965 20.1387 42.3092 20.5385 42.001C20.9383 41.6928 21.3875 41.4915 21.8859 41.397C22.3827 41.2965 22.9105 41.3305 23.4695 41.499L22.9035 43.3078C22.4062 43.1478 21.9832 43.1182 21.6346 43.219C21.282 43.3177 21.0102 43.5354 20.8193 43.8719C20.5568 44.3347 20.5491 44.7807 20.7964 45.2102C21.0458 45.6358 21.4793 46.0163 22.097 46.3517C22.7107 46.6849 23.2642 46.8404 23.7575 46.8182C24.2469 46.7938 24.625 46.5464 24.8919 46.076C25.0763 45.7509 25.1318 45.4233 25.0583 45.0932C24.983 44.7572 24.7675 44.4251 24.4117 44.0968L25.5993 42.6931C25.939 42.9776 26.1964 43.29 26.3715 43.6302C26.5427 43.9683 26.6434 44.3181 26.6735 44.6797C26.7019 45.0353 26.6723 45.3894 26.5847 45.742C26.501 46.0968 26.367 46.4367 26.1825 46.7618Z" fill="white"/>
<path d="M30.4941 40.0285C30.1638 40.4421 29.807 40.6828 29.4238 40.7507C29.0397 40.8123 28.654 40.6951 28.2664 40.3988L24.9108 37.8337L24.2749 38.6299L23.1229 37.7493L23.7587 36.9531L22.6384 36.0967L23.4884 34.2652L24.9892 35.4124L25.815 34.3784L26.967 35.259L26.1412 36.293L29.2485 38.6683C29.3648 38.7572 29.4564 38.8023 29.5235 38.8036C29.5897 38.7987 29.6655 38.7429 29.7509 38.636L30.4322 37.783L31.5842 38.6636L30.4941 40.0285Z" fill="white"/>
<path d="M39.0896 31.7288C38.6424 32.0568 38.1975 32.2272 37.7549 32.2402C37.3159 32.2506 36.8912 32.1303 36.4808 31.8791C36.0704 31.6279 35.6883 31.2713 35.3343 30.8094L32.6875 27.355L34.2866 26.1822L36.7926 29.4529C37.1439 29.9114 37.4858 30.1936 37.8184 30.2995C38.1484 30.4019 38.4832 30.3285 38.8231 30.0793C39.0234 29.9324 39.1741 29.7426 39.2752 29.5099C39.3772 29.2711 39.393 28.989 39.3224 28.6635C39.2518 28.3381 39.057 27.9671 38.7379 27.5506L36.4652 24.5845L38.0643 23.4118L42.4085 29.0816L40.8631 30.2149L39.8454 28.8867L40.06 29.0902C40.1833 29.6011 40.1666 30.0862 40.01 30.5454C39.8543 30.9985 39.5475 31.393 39.0896 31.7288Z" fill="white"/>
<path d="M47.8252 26.2683C47.3358 26.5039 46.84 26.6573 46.3376 26.7285C45.8333 26.7958 45.3587 26.7537 44.9138 26.6023C44.4689 26.4508 44.0879 26.159 43.7708 25.7266L45.2476 24.6208C45.4634 24.9606 45.7279 25.1696 46.0413 25.2478C46.3568 25.3202 46.7211 25.2569 47.1343 25.058C47.5314 24.8668 47.7878 24.6483 47.9033 24.4026C48.0169 24.1529 48.0214 23.9241 47.9168 23.7161C47.824 23.5316 47.6679 23.4093 47.4483 23.3493C47.2328 23.2873 46.9267 23.3177 46.53 23.4404L45.8929 23.6301C45.6425 23.7068 45.3701 23.7794 45.0757 23.848C44.7834 23.9108 44.4903 23.9373 44.1964 23.9276C43.9006 23.9141 43.6232 23.8331 43.3642 23.6848C43.1052 23.5365 42.8889 23.2896 42.7152 22.9443C42.504 22.5243 42.4377 22.1102 42.5163 21.7018C42.597 21.2876 42.8024 20.9035 43.1326 20.5496C43.4609 20.1917 43.8878 19.8862 44.4133 19.6332C44.8987 19.3996 45.3775 19.2568 45.8497 19.205C46.3199 19.1492 46.7575 19.192 47.1625 19.3335C47.5695 19.469 47.9128 19.7157 48.1924 20.0734L46.7215 21.191C46.6125 21.0436 46.4824 20.9186 46.3311 20.8159C46.1838 20.7114 46.0082 20.6545 45.8043 20.6454C45.5985 20.6324 45.3591 20.6916 45.0864 20.8229C44.7775 20.9716 44.5604 21.1492 44.4351 21.3558C44.3138 21.5604 44.3044 21.7648 44.4071 21.9689C44.4821 22.118 44.5934 22.2155 44.7411 22.2614C44.8928 22.3054 45.0717 22.3144 45.2778 22.2883C45.4859 22.2563 45.7122 22.2059 45.9566 22.137L46.6868 21.9244C47.0594 21.8132 47.4347 21.752 47.8127 21.7407C48.1927 21.7235 48.5441 21.7931 48.867 21.9497C49.1899 22.1062 49.454 22.3886 49.6593 22.7967C49.8863 23.2481 49.9514 23.6896 49.8547 24.1213C49.7619 24.5511 49.5373 24.9517 49.181 25.3231C48.8267 25.6886 48.3748 26.0037 47.8252 26.2683Z" fill="white"/>
<path d="M58.497 17.2789L57.1428 16.6513L58.1013 15.2354L56.4254 15.247L56.6214 13.8031L58.3077 14.2768L57.7574 12.6752L59.2211 12.4087L59.2967 14.0967L60.7025 13.0599L61.4098 14.3392L59.8419 14.9184L61.2503 15.9032L60.2178 16.9655L59.0423 15.4845L58.497 17.2789Z" fill="white"/>
</svg>
