<svg width="175" height="50" viewBox="0 0 175 50" fill="none" xmlns="http://www.w3.org/2000/svg">
<circle cx="25" cy="25" r="25" fill="#EF5744"/>
<path d="M37.6803 30.397C38.6988 28.3095 39.131 26.2374 38.9657 24.2376C38.8004 22.2377 38.0315 20.2537 36.6812 18.3426C35.3244 16.4223 33.3342 14.5112 30.7638 12.6622C29.8792 12.0253 28.2014 11.1287 26.4475 10.5612C24.8945 10.0594 22.7108 9.63754 21.128 10.4813C19.7735 11.2035 19.1073 12.6754 19.1474 14.8551C19.1855 16.9943 20.0659 19.1941 21.835 21.5808C23.3518 23.6265 25.3285 25.5488 27.0728 27.2445C28.7683 28.8924 30.3698 30.4483 31.2108 31.7924C31.2227 31.8117 32.3596 33.7359 31.7071 35.6524C31.262 36.9648 30.0835 37.9942 28.2052 38.718C24.0863 40.0393 19.8509 38.0313 17.0217 36.1133C15.2151 34.8881 13.735 33.5421 12.8062 32.623C14.9937 33.0747 16.6334 32.6786 17.2881 32.4652C17.6586 32.9269 18.0522 33.3692 18.4674 33.7903C19.7887 35.1262 21.2268 36.1086 22.76 36.7204C22.8642 36.762 22.9805 36.76 23.0832 36.7149C23.1859 36.6698 23.2667 36.5853 23.3079 36.4799C23.349 36.3746 23.347 36.2571 23.3024 36.1532C23.2578 36.0493 23.1742 35.9676 23.07 35.926C21.1509 35.1606 19.3821 33.7587 17.8112 31.7599C17.7828 31.7088 17.7437 31.6645 17.6966 31.6303C17.6249 31.5573 16.7235 30.5688 16.4391 26.8087C17.6115 28.6403 19.4421 30.6085 21.6029 32.3254C24.4482 34.5866 27.3676 36.0102 29.4123 36.1337C29.4679 36.1375 29.5237 36.1301 29.5764 36.112C29.6292 36.0938 29.6778 36.0653 29.7196 36.0281C29.7614 35.9909 29.7955 35.9457 29.82 35.8951C29.8444 35.8444 29.8587 35.7894 29.862 35.7332C29.8654 35.677 29.8577 35.6207 29.8394 35.5675C29.8211 35.5143 29.7925 35.4653 29.7554 35.4233C29.7183 35.3813 29.6733 35.3471 29.6231 35.3228C29.5728 35.2984 29.5183 35.2844 29.4627 35.2814C27.5829 35.1679 24.8399 33.8119 22.1248 31.653C19.4001 29.488 17.2313 26.9322 16.3219 24.817C16.2829 24.7265 16.2142 24.6525 16.1274 24.6074C16.0405 24.5624 15.941 24.5492 15.8456 24.57C15.7502 24.5909 15.6649 24.6445 15.6042 24.7217C15.5434 24.799 15.5111 24.8951 15.5125 24.9938C15.5774 29.0468 16.262 30.9185 16.7342 31.7333C15.8535 31.9614 13.9423 32.2494 11.5654 31.3859C11.4775 31.3538 11.3815 31.3522 11.2925 31.3813C11.2035 31.4103 11.1266 31.4684 11.0738 31.5464C11.021 31.6245 10.9953 31.718 11.0007 31.8124C11.0062 31.9068 11.0425 31.9967 11.1039 32.068C11.1371 32.1066 11.454 32.4721 12.0037 33.028C12.9318 33.9663 14.5234 35.4466 16.5338 36.8107C18.4247 38.0946 20.2911 39.004 22.082 39.5127C24.3474 40.1578 26.4968 40.1624 28.4697 39.5266C30.1155 38.9971 31.6564 38.0139 33.0509 36.6039C35.1449 34.494 36.701 32.4046 37.6803 30.397ZM31.9629 31.4006C31.9553 31.3863 31.9484 31.3743 31.9434 31.367C31.9358 31.3531 31.9308 31.3458 31.9308 31.3458C31.0383 29.9153 29.397 28.3199 27.6596 26.6308C24.1042 23.1745 20.0747 19.2582 19.9934 14.8412C19.9598 13.01 20.4744 11.798 21.5235 11.2387C22.7291 10.5956 24.5433 10.8345 26.2658 11.3973C26.4361 11.818 26.8457 13.0505 26.3204 14.1066C25.8932 14.9663 24.925 15.5348 23.4434 15.8031C23.3887 15.8127 23.3363 15.8331 23.2894 15.8632C23.2425 15.8933 23.2019 15.9325 23.17 15.9784C23.1381 16.0244 23.1155 16.0763 23.1034 16.1311C23.0914 16.186 23.0901 16.2426 23.0998 16.298C23.1094 16.3533 23.1297 16.4062 23.1595 16.4536C23.1893 16.501 23.228 16.542 23.2735 16.5742C23.319 16.6065 23.3703 16.6294 23.4246 16.6416C23.4788 16.6538 23.5349 16.6551 23.5896 16.6454C24.9976 16.3925 26.0295 15.8772 26.6689 15.1102C28.1578 16.3624 30.621 18.5881 32.5657 21.1071C33.7454 22.6349 34.5601 24.0515 34.9869 25.318C35.4775 26.7732 35.4542 28.0385 34.9178 29.0788C34.8913 29.1286 34.8748 29.1832 34.8693 29.2395C34.8638 29.2957 34.8694 29.3526 34.8858 29.4066C34.9022 29.4607 34.9291 29.5109 34.9649 29.5544C35.0006 29.5978 35.0446 29.6337 35.0942 29.6599C35.1438 29.686 35.198 29.7019 35.2537 29.7067C35.3095 29.7115 35.3656 29.7051 35.4188 29.6877C35.4721 29.6704 35.5214 29.6426 35.5639 29.6058C35.6064 29.5691 35.6412 29.5242 35.6664 29.4737C36.8434 27.1909 36.0242 24.199 33.2315 20.5818C31.202 17.9531 28.6324 15.6448 27.1232 14.3826C27.5459 13.4447 27.4428 12.4561 27.2691 11.7659C28.4854 12.2562 29.5784 12.861 30.2732 13.3613C35.1717 16.887 37.8124 20.5714 38.122 24.3125C38.4274 28.003 36.5865 31.8151 32.4966 35.9654C32.5012 35.9523 32.5062 35.9395 32.5104 35.9268C33.2342 33.7868 32.1622 31.7491 31.9629 31.3987V31.4006Z" fill="white"/>
<path d="M73.016 33.392C71.8027 33.392 70.7107 33.2707 69.74 33.028C68.788 32.7853 67.9667 32.4213 67.276 31.936C66.604 31.4507 66.0813 30.844 65.708 30.116C65.3533 29.388 65.1573 28.548 65.12 27.596L68.704 26.504C68.7227 27.3627 68.9187 28.072 69.292 28.632C69.684 29.1733 70.2253 29.584 70.916 29.864C71.6067 30.1253 72.3813 30.256 73.24 30.256C74.0427 30.256 74.724 30.1533 75.284 29.948C75.8627 29.7427 76.292 29.472 76.572 29.136C76.8707 28.8 77.02 28.4267 77.02 28.016C77.02 27.5307 76.8333 27.1387 76.46 26.84C76.0867 26.5227 75.5733 26.2613 74.92 26.056C74.2853 25.8507 73.5573 25.6547 72.736 25.468C71.84 25.2627 70.9627 25.0293 70.104 24.768C69.2453 24.5067 68.4613 24.1707 67.752 23.76C67.0427 23.3493 66.4733 22.8267 66.044 22.192C65.6333 21.5387 65.428 20.708 65.428 19.7C65.428 18.58 65.708 17.6093 66.268 16.788C66.8467 15.948 67.6773 15.2947 68.76 14.828C69.8613 14.3613 71.1773 14.128 72.708 14.128C74.2573 14.128 75.5827 14.3613 76.684 14.828C77.804 15.2947 78.672 15.9573 79.288 16.816C79.904 17.656 80.2213 18.6547 80.24 19.812L76.6 20.764C76.6 20.1853 76.5067 19.6813 76.32 19.252C76.152 18.804 75.9 18.44 75.564 18.16C75.228 17.8613 74.8173 17.6373 74.332 17.488C73.8467 17.3387 73.296 17.264 72.68 17.264C71.952 17.264 71.3267 17.3573 70.804 17.544C70.3 17.7307 69.9173 17.9827 69.656 18.3C69.3947 18.5987 69.264 18.9627 69.264 19.392C69.264 19.896 69.46 20.3067 69.852 20.624C70.2627 20.9413 70.804 21.2027 71.476 21.408C72.1667 21.6133 72.932 21.8187 73.772 22.024C74.5747 22.192 75.3867 22.4067 76.208 22.668C77.048 22.9107 77.8227 23.2373 78.532 23.648C79.2413 24.0587 79.8107 24.6 80.24 25.272C80.6693 25.944 80.884 26.8027 80.884 27.848C80.884 28.9867 80.5853 29.9667 79.988 30.788C79.3907 31.6093 78.504 32.2533 77.328 32.72C76.1707 33.168 74.7333 33.392 73.016 33.392ZM90.8336 33.392C89.6016 33.392 88.5096 33.224 87.5576 32.888C86.6243 32.5333 85.831 32.0387 85.1776 31.404C84.543 30.7507 84.0576 29.9667 83.7216 29.052C83.3856 28.1187 83.2176 27.0733 83.2176 25.916C83.2176 24.7773 83.3763 23.7227 83.6936 22.752C84.0296 21.7627 84.5056 20.9133 85.1216 20.204C85.7563 19.476 86.5216 18.916 87.4176 18.524C88.3323 18.1133 89.3776 17.908 90.5536 17.908C91.6923 17.908 92.691 18.0947 93.5496 18.468C94.427 18.8413 95.155 19.4013 95.7336 20.148C96.3123 20.876 96.7323 21.7627 96.9936 22.808C97.255 23.8347 97.339 25.02 97.2456 26.364L85.8496 26.476V24.264L94.7816 24.152L93.5216 25.328C93.6336 24.3387 93.5683 23.536 93.3256 22.92C93.083 22.2853 92.719 21.8187 92.2336 21.52C91.7483 21.2027 91.1976 21.044 90.5816 21.044C89.8723 21.044 89.2563 21.24 88.7336 21.632C88.211 22.0053 87.8003 22.5467 87.5016 23.256C87.2216 23.9653 87.0816 24.824 87.0816 25.832C87.0816 27.4 87.4176 28.5573 88.0896 29.304C88.7803 30.0507 89.695 30.424 90.8336 30.424C91.3563 30.424 91.795 30.3587 92.1496 30.228C92.5043 30.0787 92.7936 29.892 93.0176 29.668C93.2603 29.444 93.447 29.1827 93.5776 28.884C93.7083 28.5853 93.811 28.2867 93.8856 27.988L97.4136 28.688C97.3016 29.36 97.087 29.9853 96.7696 30.564C96.4523 31.124 96.023 31.6187 95.4816 32.048C94.959 32.4773 94.315 32.804 93.5496 33.028C92.7843 33.2707 91.879 33.392 90.8336 33.392ZM103.799 33.392C102.996 33.392 102.268 33.2427 101.615 32.944C100.98 32.6267 100.476 32.16 100.103 31.544C99.7292 30.928 99.5425 30.1627 99.5425 29.248C99.5425 28.4267 99.7012 27.7453 100.019 27.204C100.336 26.644 100.793 26.196 101.391 25.86C101.988 25.524 102.707 25.244 103.547 25.02C104.405 24.796 105.367 24.6093 106.431 24.46C107.084 24.348 107.607 24.2453 107.999 24.152C108.409 24.0587 108.708 23.9187 108.895 23.732C109.081 23.5453 109.175 23.2747 109.175 22.92C109.175 22.3787 108.979 21.9307 108.587 21.576C108.213 21.2027 107.625 21.016 106.823 21.016C106.3 21.016 105.805 21.1093 105.339 21.296C104.891 21.464 104.508 21.744 104.191 22.136C103.873 22.5093 103.659 23.004 103.547 23.62L99.9625 22.668C100.149 21.828 100.448 21.1187 100.859 20.54C101.269 19.9427 101.773 19.448 102.371 19.056C102.987 18.664 103.677 18.3747 104.443 18.188C105.227 18.0013 106.057 17.908 106.935 17.908C108.353 17.908 109.511 18.1413 110.407 18.608C111.321 19.0747 112.003 19.7933 112.451 20.764C112.899 21.7347 113.123 22.9667 113.123 24.46V26.98C113.123 27.6333 113.132 28.296 113.151 28.968C113.188 29.64 113.225 30.3213 113.263 31.012C113.3 31.684 113.347 32.3467 113.403 33H109.847C109.791 32.4773 109.735 31.908 109.679 31.292C109.623 30.676 109.585 30.0413 109.567 29.388H109.119C108.895 30.116 108.531 30.788 108.027 31.404C107.541 32.02 106.944 32.5053 106.235 32.86C105.525 33.2147 104.713 33.392 103.799 33.392ZM105.479 30.452C105.833 30.452 106.197 30.3867 106.571 30.256C106.944 30.1253 107.299 29.9387 107.635 29.696C107.989 29.4347 108.307 29.1173 108.587 28.744C108.867 28.352 109.081 27.904 109.231 27.4L109.203 25.356L109.847 25.44C109.548 25.6827 109.184 25.8787 108.755 26.028C108.325 26.1587 107.868 26.2707 107.383 26.364C106.916 26.4387 106.44 26.5227 105.954 26.616C105.488 26.6907 105.068 26.8027 104.695 26.952C104.321 27.1013 104.023 27.3067 103.799 27.568C103.575 27.8293 103.463 28.184 103.463 28.632C103.463 29.192 103.649 29.64 104.023 29.976C104.396 30.2933 104.881 30.452 105.479 30.452ZM125.497 33.392C124.564 33.392 123.752 33.2147 123.061 32.86C122.389 32.4867 121.839 31.9453 121.409 31.236C120.98 30.5267 120.681 29.6773 120.513 28.688H120.037V33H116.677V26.056V13.092H120.709V17.768C120.709 18.2347 120.672 18.7293 120.597 19.252C120.541 19.7747 120.467 20.3253 120.373 20.904C120.28 21.464 120.177 22.0427 120.065 22.64H120.625C120.849 21.6507 121.167 20.8107 121.577 20.12C122.007 19.4107 122.548 18.8693 123.201 18.496C123.873 18.1227 124.657 17.936 125.553 17.936C126.767 17.936 127.812 18.2533 128.689 18.888C129.567 19.504 130.248 20.3907 130.733 21.548C131.219 22.7053 131.461 24.0867 131.461 25.692C131.461 27.2787 131.219 28.6507 130.733 29.808C130.248 30.9467 129.557 31.8333 128.661 32.468C127.765 33.084 126.711 33.392 125.497 33.392ZM124.097 30.116C124.751 30.116 125.311 29.9293 125.777 29.556C126.263 29.1827 126.627 28.66 126.869 27.988C127.131 27.316 127.261 26.5413 127.261 25.664C127.261 24.7867 127.14 24.0213 126.897 23.368C126.655 22.696 126.3 22.1733 125.833 21.8C125.367 21.408 124.807 21.212 124.153 21.212C123.724 21.212 123.323 21.296 122.949 21.464C122.576 21.632 122.249 21.856 121.969 22.136C121.708 22.416 121.475 22.7427 121.269 23.116C121.083 23.4707 120.933 23.8533 120.821 24.264C120.728 24.656 120.681 25.048 120.681 25.44V25.888C120.681 26.3733 120.747 26.868 120.877 27.372C121.027 27.8573 121.241 28.3053 121.521 28.716C121.801 29.1267 122.156 29.4627 122.585 29.724C123.015 29.9853 123.519 30.116 124.097 30.116ZM139.433 33.392C137.734 33.392 136.456 32.8133 135.597 31.656C134.738 30.48 134.309 28.7067 134.309 26.336V18.3H138.369V25.888C138.369 27.3067 138.574 28.352 138.985 29.024C139.396 29.696 140.03 30.032 140.889 30.032C141.393 30.032 141.841 29.9013 142.233 29.64C142.625 29.3787 142.961 29.0147 143.241 28.548C143.521 28.0627 143.726 27.4933 143.857 26.84C144.006 26.1867 144.09 25.468 144.109 24.684V18.3H148.141V26.868V33H144.837L144.865 28.184H144.389C144.146 29.3973 143.81 30.3867 143.381 31.152C142.97 31.9173 142.438 32.4867 141.785 32.86C141.132 33.2147 140.348 33.392 139.433 33.392ZM157.271 33.392C156.058 33.392 154.994 33.084 154.079 32.468C153.183 31.8333 152.483 30.9373 151.979 29.78C151.475 28.6227 151.223 27.232 151.223 25.608C151.223 24.0773 151.447 22.7427 151.895 21.604C152.343 20.4467 152.996 19.5507 153.855 18.916C154.732 18.2627 155.806 17.936 157.075 17.936C158.027 17.936 158.83 18.1227 159.483 18.496C160.136 18.8507 160.668 19.3827 161.079 20.092C161.508 20.7827 161.835 21.632 162.059 22.64H162.647C162.535 22.024 162.423 21.4267 162.311 20.848C162.218 20.2507 162.134 19.6907 162.059 19.168C162.003 18.6453 161.975 18.1787 161.975 17.768V13.092H166.035V26.084V33H162.647V28.688H162.143C161.938 29.7333 161.62 30.6107 161.191 31.32C160.762 32.0107 160.22 32.5333 159.567 32.888C158.914 33.224 158.148 33.392 157.271 33.392ZM158.615 30.116C159.194 30.116 159.688 29.9853 160.099 29.724C160.528 29.4627 160.883 29.1267 161.163 28.716C161.443 28.2867 161.648 27.8293 161.779 27.344C161.928 26.84 162.003 26.3547 162.003 25.888V25.44C162.003 25.048 161.947 24.656 161.835 24.264C161.742 23.872 161.602 23.4987 161.415 23.144C161.228 22.7707 160.995 22.444 160.715 22.164C160.435 21.8653 160.108 21.632 159.735 21.464C159.38 21.296 158.988 21.212 158.559 21.212C157.906 21.212 157.346 21.408 156.879 21.8C156.412 22.1733 156.048 22.696 155.787 23.368C155.544 24.0213 155.423 24.7867 155.423 25.664C155.423 26.5413 155.554 27.316 155.815 27.988C156.076 28.66 156.44 29.1827 156.907 29.556C157.392 29.9293 157.962 30.116 158.615 30.116Z" fill="white"/>
<path d="M171.346 33.364C170.468 33.364 169.806 33.1773 169.358 32.804C168.928 32.4307 168.714 31.852 168.714 31.068C168.714 30.2653 168.928 29.6773 169.358 29.304C169.806 28.9307 170.468 28.744 171.346 28.744C172.242 28.744 172.904 28.9307 173.334 29.304C173.782 29.6773 174.006 30.2653 174.006 31.068C174.006 32.5987 173.119 33.364 171.346 33.364Z" fill="#EF5744"/>
</svg>
