<svg width="24" height="24" viewBox="0 0 24 24" fill="none" xmlns="http://www.w3.org/2000/svg">
<g clip-path="url(#clip0_149_360)">
<path d="M12.809 11.8287C12.5547 11.9391 12.2805 11.9961 12.0033 11.9961C11.7261 11.9961 11.4518 11.9391 11.1975 11.8287L1.42611 7.303C1.26744 7.22297 1.1341 7.10046 1.04093 6.94913C0.947767 6.79779 0.898437 6.62357 0.898438 6.44586C0.898437 6.26814 0.947767 6.09392 1.04093 5.94258C1.1341 5.79125 1.26744 5.66874 1.42611 5.58871L11.1975 1.02871C11.4518 0.918302 11.7261 0.861328 12.0033 0.861328C12.2805 0.861328 12.5547 0.918302 12.809 1.02871L22.5804 5.55443C22.7391 5.63446 22.8724 5.75696 22.9656 5.9083C23.0587 6.05963 23.1081 6.23386 23.1081 6.41157C23.1081 6.58928 23.0587 6.76351 22.9656 6.91484C22.8724 7.06618 22.7391 7.18868 22.5804 7.26871L12.809 11.8287Z" stroke="#111330" stroke-linecap="round" stroke-linejoin="round"/>
<path d="M23.1451 12.6002L12.6879 17.4173C12.4646 17.5192 12.222 17.5719 11.9765 17.5719C11.731 17.5719 11.4884 17.5192 11.2651 17.4173L0.859375 12.6002" stroke="#111330" stroke-linecap="round" stroke-linejoin="round"/>
<path d="M23.1451 18.1716L12.6879 22.9887C12.4646 23.0906 12.222 23.1433 11.9765 23.1433C11.731 23.1433 11.4884 23.0906 11.2651 22.9887L0.859375 18.1716" stroke="#111330" stroke-linecap="round" stroke-linejoin="round"/>
</g>
<defs>
<clipPath id="clip0_149_360">
<rect width="24" height="24" fill="white"/>
</clipPath>
</defs>
</svg>
