<svg width="20" height="20" viewBox="0 0 20 20" fill="none" xmlns="http://www.w3.org/2000/svg">
<g clip-path="url(#clip0_52_70444)">
<path d="M15.8064 12.3897C15.397 11.9633 14.9031 11.7354 14.3797 11.7354C13.8605 11.7354 13.3624 11.9591 12.936 12.3855L11.6022 13.7151C11.4924 13.656 11.3827 13.6011 11.2771 13.5463C11.1252 13.4703 10.9816 13.3985 10.8592 13.3225C9.60978 12.529 8.47429 11.4948 7.38524 10.1567C6.8576 9.48976 6.50302 8.92835 6.24553 8.35849C6.59166 8.04191 6.91247 7.71266 7.22484 7.39607C7.34303 7.27788 7.46122 7.15547 7.57941 7.03728C8.46585 6.15084 8.46585 5.00269 7.57941 4.11625L6.42704 2.96388C6.29619 2.83303 6.16111 2.69795 6.03447 2.56287C5.78121 2.30116 5.51527 2.03101 5.2409 1.77774C4.83145 1.37251 4.3418 1.15723 3.82682 1.15723C3.31184 1.15723 2.81375 1.37251 2.39163 1.77774C2.38741 1.78196 2.38741 1.78196 2.38319 1.78618L0.948004 3.23403C0.407699 3.77434 0.099556 4.43284 0.0320178 5.19686C-0.0692895 6.42943 0.293728 7.57758 0.572323 8.32895C1.25615 10.1736 2.27766 11.8831 3.80149 13.7151C5.65035 15.9228 7.87489 17.6661 10.416 18.8945C11.3869 19.3546 12.6828 19.8991 14.1306 19.9919C14.2193 19.9962 14.3121 20.0004 14.3965 20.0004C15.3716 20.0004 16.1905 19.65 16.8321 18.9535C16.8364 18.9451 16.8448 18.9409 16.849 18.9324C17.0685 18.6665 17.3218 18.4259 17.5877 18.1684C17.7692 17.9953 17.955 17.8138 18.1365 17.6239C18.5544 17.1891 18.7739 16.6826 18.7739 16.1634C18.7739 15.64 18.5501 15.1376 18.1238 14.7155L15.8064 12.3897ZM17.3176 16.8345C17.3134 16.8345 17.3134 16.8388 17.3176 16.8345C17.153 17.0118 16.9841 17.1722 16.8026 17.3495C16.5282 17.6112 16.2496 17.8856 15.9879 18.1937C15.5616 18.6496 15.0593 18.8649 14.4008 18.8649C14.3375 18.8649 14.2699 18.8649 14.2066 18.8607C12.9529 18.7805 11.7879 18.2908 10.9141 17.8729C8.52495 16.7163 6.42704 15.0743 4.68371 12.9933C3.2443 11.2584 2.28188 9.65438 1.64449 7.93216C1.25193 6.8811 1.10841 6.0622 1.17172 5.28973C1.21394 4.79585 1.40389 4.3864 1.75424 4.03605L3.19365 2.59664C3.40049 2.40247 3.61998 2.29694 3.83526 2.29694C4.10119 2.29694 4.31647 2.45734 4.45155 2.59242C4.45577 2.59664 4.45999 2.60086 4.46421 2.60508C4.7217 2.84569 4.96653 3.09474 5.22402 3.36067C5.35487 3.49574 5.48995 3.63082 5.62502 3.77012L6.77739 4.92249C7.22483 5.36993 7.22483 5.7836 6.77739 6.23104C6.65498 6.35345 6.53679 6.47587 6.41438 6.59406C6.0598 6.95708 5.72211 7.29477 5.35487 7.62402C5.34643 7.63246 5.33799 7.63668 5.33377 7.64512C4.97075 8.00814 5.03829 8.36271 5.11427 8.60332C5.11849 8.61598 5.12271 8.62865 5.12693 8.64131C5.42663 9.36734 5.84874 10.0512 6.49036 10.8658L6.49458 10.8701C7.65961 12.3053 8.88796 13.4239 10.2429 14.2807C10.416 14.3905 10.5933 14.4791 10.7621 14.5636C10.9141 14.6395 11.0576 14.7113 11.18 14.7873C11.1969 14.7957 11.2138 14.8084 11.2307 14.8168C11.3742 14.8886 11.5093 14.9224 11.6486 14.9224C11.9989 14.9224 12.2184 14.7029 12.2902 14.6311L13.7338 13.1875C13.8773 13.044 14.1053 12.8709 14.3712 12.8709C14.6329 12.8709 14.8482 13.0355 14.9791 13.179C14.9833 13.1833 14.9833 13.1833 14.9875 13.1875L17.3134 15.5133C17.7481 15.9439 17.7481 16.3871 17.3176 16.8345Z" fill="#EF5744"/>
<path d="M10.8089 4.75741C11.9148 4.94314 12.9195 5.46656 13.7215 6.26858C14.5235 7.0706 15.0427 8.07523 15.2327 9.18116C15.2791 9.45976 15.5197 9.65393 15.7941 9.65393C15.8278 9.65393 15.8574 9.64971 15.8912 9.64549C16.2035 9.59484 16.4104 9.29936 16.3597 8.98699C16.1318 7.64889 15.4986 6.42898 14.5319 5.46234C13.5653 4.4957 12.3454 3.86253 11.0073 3.63459C10.6949 3.58394 10.4037 3.79077 10.3488 4.09891C10.2939 4.40706 10.4965 4.70676 10.8089 4.75741Z" fill="#EF5744"/>
<path d="M19.9756 8.82243C19.6 6.619 18.5616 4.61396 16.966 3.01837C15.3704 1.42278 13.3653 0.384377 11.1619 0.00869535C10.8538 -0.0461794 10.5625 0.164877 10.5076 0.47302C10.457 0.785385 10.6638 1.07664 10.9762 1.13152C12.9432 1.46499 14.7372 2.39786 16.1639 3.82038C17.5907 5.24713 18.5193 7.04111 18.8528 9.00816C18.8992 9.28675 19.1398 9.48093 19.4142 9.48093C19.448 9.48093 19.4775 9.47671 19.5113 9.47248C19.8195 9.42605 20.0305 9.13057 19.9756 8.82243Z" fill="#EF5744"/>
</g>
<defs>
<clipPath id="clip0_52_70444">
<rect width="20" height="20" fill="white"/>
</clipPath>
</defs>
</svg>
