<svg width="40" height="40" viewBox="0 0 40 40" fill="none" xmlns="http://www.w3.org/2000/svg">
<path d="M30.3996 4.39941H9.59964C9.1201 4.41258 8.6504 4.53841 8.2285 4.76673C7.80661 4.99505 7.44437 5.31945 7.17106 5.7137L1.97107 12.9137C1.58494 13.4593 1.39211 14.1183 1.42316 14.786C1.45422 15.4537 1.70739 16.092 2.14249 16.5994L17.7425 34.5708C18.0096 34.915 18.3518 35.1935 18.743 35.3851C19.1342 35.5767 19.564 35.6763 19.9996 35.6763C20.4352 35.6763 20.8651 35.5767 21.2563 35.3851C21.6475 35.1935 21.9897 34.915 22.2568 34.5708L37.8568 16.5994C38.2919 16.092 38.545 15.4537 38.5761 14.786C38.6072 14.1183 38.4143 13.4593 38.0282 12.9137L32.8282 5.7137C32.5549 5.31945 32.1927 4.99505 31.7708 4.76673C31.3489 4.53841 30.8792 4.41258 30.3996 4.39941V4.39941Z" stroke="#EF5744" stroke-width="2" stroke-linecap="round" stroke-linejoin="round"/>
<path d="M18.5144 4.37109L11.543 15.1711L20.0001 35.5997" stroke="#EF5744" stroke-width="2" stroke-linecap="round" stroke-linejoin="round"/>
<path d="M21.5714 4.37109L28.5143 15.1711L20 35.5997" stroke="#EF5744" stroke-width="2" stroke-linecap="round" stroke-linejoin="round"/>
<path d="M1.48535 15.1709H38.5139" stroke="#EF5744" stroke-width="2" stroke-linecap="round" stroke-linejoin="round"/>
</svg>
