<svg width="50" height="50" viewBox="0 0 50 50" fill="none" xmlns="http://www.w3.org/2000/svg">
<path d="M18.6782 8.03564L20.2139 4.07136C20.4729 3.40016 20.9286 2.82283 21.5212 2.41497C22.1139 2.00712 22.8159 1.78777 23.5353 1.78564H26.4639C27.1833 1.78777 27.8853 2.00712 28.478 2.41497C29.0707 2.82283 29.5263 3.40016 29.7853 4.07136L31.321 8.03564L36.5353 11.0356L40.7496 10.3928C41.4513 10.2975 42.1655 10.4131 42.8015 10.7247C43.4374 11.0363 43.9663 11.5299 44.321 12.1428L45.7496 14.6428C46.1157 15.2655 46.2843 15.9845 46.2333 16.705C46.1823 17.4255 45.914 18.1136 45.4639 18.6785L42.8568 21.9999V27.9999L45.5353 31.3214C45.9855 31.8863 46.2537 32.5744 46.3048 33.2949C46.3558 34.0154 46.1871 34.7344 45.821 35.3571L44.3925 37.8571C44.0377 38.47 43.5088 38.9636 42.8729 39.2752C42.237 39.5868 41.5228 39.7023 40.821 39.6071L36.6068 38.9642L31.3925 41.9642L29.8568 45.9285C29.5978 46.5997 29.1421 47.177 28.5494 47.5849C27.9568 47.9927 27.2548 48.2121 26.5353 48.2142H23.5353C22.8159 48.2121 22.1139 47.9927 21.5212 47.5849C20.9286 47.177 20.4729 46.5997 20.2139 45.9285L18.6782 41.9642L13.4639 38.9642L9.24961 39.6071C8.54788 39.7023 7.83368 39.5868 7.19776 39.2752C6.56184 38.9636 6.03291 38.47 5.67818 37.8571L4.24961 35.3571C3.88354 34.7344 3.71489 34.0154 3.76589 33.2949C3.8169 32.5744 4.08518 31.8863 4.53532 31.3214L7.14247 27.9999V21.9999L4.46389 18.6785C4.01375 18.1136 3.74547 17.4255 3.69447 16.705C3.64346 15.9845 3.81211 15.2655 4.17818 14.6428L5.60675 12.1428C5.96148 11.5299 6.49041 11.0363 7.12633 10.7247C7.76225 10.4131 8.47645 10.2975 9.17818 10.3928L13.3925 11.0356L18.6782 8.03564ZM17.8568 24.9999C17.8568 26.4127 18.2757 27.7937 19.0605 28.9683C19.8454 30.1429 20.961 31.0584 22.2662 31.5991C23.5713 32.1397 25.0075 32.2811 26.3931 32.0055C27.7787 31.7299 29.0514 31.0496 30.0504 30.0507C31.0493 29.0517 31.7296 27.779 32.0052 26.3934C32.2808 25.0079 32.1394 23.5717 31.5987 22.2665C31.0581 20.9613 30.1426 19.8457 28.968 19.0609C27.7933 18.276 26.4123 17.8571 24.9996 17.8571C23.1052 17.8571 21.2884 18.6096 19.9488 19.9492C18.6093 21.2887 17.8568 23.1055 17.8568 24.9999V24.9999Z" stroke="#EF5744" stroke-width="2" stroke-linecap="round" stroke-linejoin="round"/>
</svg>
