<svg width="24" height="24" viewBox="0 0 24 24" fill="none" xmlns="http://www.w3.org/2000/svg">
<g clip-path="url(#clip0_149_352)">
<path d="M14.5737 8.57133C15.5204 8.57133 16.2879 7.80382 16.2879 6.85705C16.2879 5.91027 15.5204 5.14276 14.5737 5.14276C13.6269 5.14276 12.8594 5.91027 12.8594 6.85705C12.8594 7.80382 13.6269 8.57133 14.5737 8.57133Z" stroke="#111330" stroke-linecap="round" stroke-linejoin="round"/>
<path d="M7.71652 17.1432C8.1899 17.1432 8.57366 16.7594 8.57366 16.286C8.57366 15.8126 8.1899 15.4289 7.71652 15.4289C7.24313 15.4289 6.85938 15.8126 6.85938 16.286C6.85938 16.7594 7.24313 17.1432 7.71652 17.1432Z" stroke="#111330" stroke-linecap="round" stroke-linejoin="round"/>
<path d="M7.71429 11.1428C8.66106 11.1428 9.42857 10.3753 9.42857 9.42852C9.42857 8.48175 8.66106 7.71423 7.71429 7.71423C6.76751 7.71423 6 8.48175 6 9.42852C6 10.3753 6.76751 11.1428 7.71429 11.1428Z" stroke="#111330" stroke-linecap="round" stroke-linejoin="round"/>
<path d="M16.3209 21.0514C16.3018 20.7189 16.1863 20.3991 15.9884 20.1312C15.7905 19.8633 15.5189 19.6589 15.2066 19.5428C14.4313 19.288 13.7723 18.7649 13.3481 18.0676C12.9239 17.3704 12.7623 16.5446 12.8925 15.7389C13.0226 14.9332 13.436 14.2003 14.0581 13.6721C14.6803 13.1438 15.4705 12.8549 16.2866 12.8571H19.4924C20.0422 12.8587 20.5843 12.7279 21.073 12.476C21.5617 12.224 21.9827 11.8582 22.3003 11.4095C22.618 10.9607 22.8231 10.4421 22.8983 9.89745C22.9735 9.35279 22.9166 8.79803 22.7324 8.27998C22.0505 6.35478 20.8527 4.65401 19.2697 3.36348C17.6867 2.07296 15.7795 1.24232 13.7564 0.96233C11.7333 0.682336 9.67218 0.963754 7.7982 1.77584C5.92422 2.58792 4.30948 3.89943 3.13039 5.56708C1.9513 7.23472 1.25323 9.19435 1.11245 11.2319C0.97166 13.2694 1.39357 15.3064 2.33209 17.1204C3.27061 18.9343 4.68962 20.4555 6.4341 21.5176C8.17858 22.5797 10.1814 23.1419 12.2238 23.1428C13.2324 23.1457 14.2365 23.0072 15.2066 22.7314C15.563 22.6316 15.8716 22.407 16.0761 22.0986C16.2807 21.7902 16.3676 21.4185 16.3209 21.0514V21.0514Z" stroke="#111330" stroke-linecap="round" stroke-linejoin="round"/>
</g>
<defs>
<clipPath id="clip0_149_352">
<rect width="24" height="24" fill="white"/>
</clipPath>
</defs>
</svg>
