<svg width="24" height="24" viewBox="0 0 24 24" fill="none" xmlns="http://www.w3.org/2000/svg">
<path d="M19.7147 8.57207C19.7147 12.8406 12.0004 23.1435 12.0004 23.1435C12.0004 23.1435 4.28613 12.8406 4.28613 8.57207C4.28613 6.52612 5.09889 4.56396 6.54559 3.11725C7.9923 1.67054 9.95446 0.857788 12.0004 0.857788C14.0464 0.857788 16.0085 1.67054 17.4552 3.11725C18.902 4.56396 19.7147 6.52612 19.7147 8.57207V8.57207Z" stroke="white" stroke-width="1.5" stroke-linecap="round" stroke-linejoin="round"/>
<path d="M12.0001 11.1427C13.4203 11.1427 14.5716 9.99147 14.5716 8.57131C14.5716 7.15115 13.4203 5.99988 12.0001 5.99988C10.58 5.99988 9.42871 7.15115 9.42871 8.57131C9.42871 9.99147 10.58 11.1427 12.0001 11.1427Z" stroke="white" stroke-width="1.5" stroke-linecap="round" stroke-linejoin="round"/>
</svg>
