<svg width="24" height="24" viewBox="0 0 24 24" fill="none" xmlns="http://www.w3.org/2000/svg">
<g clip-path="url(#clip0_52_72966)">
<path d="M14.5717 8.57115C15.5185 8.57115 16.286 7.80364 16.286 6.85686C16.286 5.91009 15.5185 5.14258 14.5717 5.14258C13.6249 5.14258 12.8574 5.91009 12.8574 6.85686C12.8574 7.80364 13.6249 8.57115 14.5717 8.57115Z" stroke="white" stroke-linecap="round" stroke-linejoin="round"/>
<path d="M7.71456 17.143C8.18795 17.143 8.57171 16.7592 8.57171 16.2859C8.57171 15.8125 8.18795 15.4287 7.71456 15.4287C7.24118 15.4287 6.85742 15.8125 6.85742 16.2859C6.85742 16.7592 7.24118 17.143 7.71456 17.143Z" stroke="white" stroke-linecap="round" stroke-linejoin="round"/>
<path d="M7.71429 11.1424C8.66106 11.1424 9.42857 10.3749 9.42857 9.42815C9.42857 8.48138 8.66106 7.71387 7.71429 7.71387C6.76751 7.71387 6 8.48138 6 9.42815C6 10.3749 6.76751 11.1424 7.71429 11.1424Z" stroke="white" stroke-linecap="round" stroke-linejoin="round"/>
<path d="M16.32 21.0512C16.3009 20.7187 16.1853 20.399 15.9874 20.131C15.7895 19.8631 15.5179 19.6587 15.2057 19.5427C14.4303 19.2878 13.7713 18.7647 13.3471 18.0675C12.9229 17.3702 12.7614 16.5445 12.8915 15.7387C13.0217 14.933 13.435 14.2001 14.0571 13.6719C14.6793 13.1437 15.4695 12.8547 16.2857 12.8569H19.4914C20.0412 12.8585 20.5833 12.7277 21.072 12.4758C21.5607 12.2238 21.9817 11.8581 22.2993 11.4093C22.617 10.9605 22.8221 10.4419 22.8973 9.89726C22.9725 9.3526 22.9156 8.79785 22.7314 8.27979C22.0495 6.3546 20.8517 4.65383 19.2687 3.3633C17.6857 2.07278 15.7785 1.24214 13.7554 0.962147C11.7323 0.682153 9.67121 0.963571 7.79722 1.77565C5.92324 2.58774 4.3085 3.89925 3.12941 5.5669C1.95033 7.23454 1.25226 9.19417 1.11147 11.2317C0.970684 13.2692 1.3926 15.3062 2.33111 17.1202C3.26963 18.9342 4.68864 20.4553 6.43312 21.5174C8.1776 22.5795 10.1804 23.1417 12.2228 23.1427C13.2314 23.1455 14.2355 23.007 15.2057 22.7312C15.562 22.6314 15.8706 22.4068 16.0751 22.0984C16.2797 21.79 16.3666 21.4183 16.32 21.0512V21.0512Z" stroke="white" stroke-linecap="round" stroke-linejoin="round"/>
</g>
<defs>
<clipPath id="clip0_52_72966">
<rect width="24" height="24" fill="white"/>
</clipPath>
</defs>
</svg>
