<svg width="40" height="40" viewBox="0 0 40 40" fill="none" xmlns="http://www.w3.org/2000/svg">
<path d="M20 28.6289V31.5146" stroke="#EF5744" stroke-width="2" stroke-linecap="round" stroke-linejoin="round"/>
<path d="M20 14.3145V17.0002" stroke="#EF5744" stroke-width="2" stroke-linecap="round" stroke-linejoin="round"/>
<path d="M20.0003 38.5428C30.0003 38.5428 37.1431 34.9999 37.1431 27.1142C37.1431 18.5428 32.8574 12.8285 24.286 8.54277L27.6574 4.19992C27.8287 3.91498 27.9216 3.58982 27.9267 3.2574C27.9318 2.92498 27.849 2.59712 27.6865 2.30705C27.5241 2.01698 27.2878 1.77501 27.0017 1.60567C26.7156 1.43633 26.3899 1.34563 26.0574 1.34277H13.9431C13.6107 1.34563 13.2849 1.43633 12.9988 1.60567C12.7127 1.77501 12.4765 2.01698 12.314 2.30705C12.1516 2.59712 12.0687 2.92498 12.0738 3.2574C12.079 3.58982 12.1719 3.91498 12.3431 4.19992L15.7146 8.57134C7.14314 12.8856 2.85742 18.5999 2.85742 27.1713C2.85742 34.9999 10.0003 38.5428 20.0003 38.5428Z" stroke="#EF5744" stroke-width="2" stroke-linecap="round" stroke-linejoin="round"/>
<path d="M17.1425 27.3146C17.4911 27.7284 17.9299 28.0568 18.4251 28.2748C18.9204 28.4927 19.459 28.5943 19.9996 28.5717C20.8259 28.628 21.6419 28.3618 22.2759 27.829C22.91 27.2961 23.3128 26.5382 23.3996 25.7146C23.3128 24.8909 22.91 24.133 22.2759 23.6002C21.6419 23.0673 20.8259 22.8011 19.9996 22.8574C19.1733 22.9138 18.3573 22.6475 17.7233 22.1147C17.0892 21.5819 16.6864 20.8239 16.5996 20.0003C16.6795 19.1737 17.0803 18.4115 17.716 17.8772C18.3518 17.343 19.1717 17.0794 19.9996 17.1431C20.5307 17.1106 21.0624 17.1963 21.5564 17.3939C22.0505 17.5915 22.4946 17.8962 22.8568 18.286" stroke="#EF5744" stroke-width="2" stroke-linecap="round" stroke-linejoin="round"/>
</svg>
