<svg width="24" height="24" viewBox="0 0 24 24" fill="none" xmlns="http://www.w3.org/2000/svg">
<g clip-path="url(#clip0_52_72974)">
<path d="M12.806 11.8287C12.5518 11.9391 12.2775 11.9961 12.0003 11.9961C11.7231 11.9961 11.4489 11.9391 11.1946 11.8287L1.42318 7.303C1.26451 7.22297 1.13117 7.10046 1.038 6.94913C0.944837 6.79779 0.895508 6.62357 0.895508 6.44586C0.895508 6.26814 0.944837 6.09392 1.038 5.94258C1.13117 5.79125 1.26451 5.66874 1.42318 5.58871L11.1946 1.02871C11.4489 0.918302 11.7231 0.861328 12.0003 0.861328C12.2775 0.861328 12.5518 0.918302 12.806 1.02871L22.5775 5.55443C22.7361 5.63446 22.8695 5.75696 22.9626 5.9083C23.0558 6.05963 23.1051 6.23386 23.1051 6.41157C23.1051 6.58928 23.0558 6.76351 22.9626 6.91484C22.8695 7.06618 22.7361 7.18868 22.5775 7.26871L12.806 11.8287Z" stroke="white" stroke-linecap="round" stroke-linejoin="round"/>
<path d="M23.1431 12.6001L12.686 17.4172C12.4627 17.5191 12.22 17.5718 11.9746 17.5718C11.7291 17.5718 11.4865 17.5191 11.2631 17.4172L0.857422 12.6001" stroke="white" stroke-linecap="round" stroke-linejoin="round"/>
<path d="M23.1431 18.1714L12.686 22.9885C12.4627 23.0904 12.22 23.1431 11.9746 23.1431C11.7291 23.1431 11.4865 23.0904 11.2631 22.9885L0.857422 18.1714" stroke="white" stroke-linecap="round" stroke-linejoin="round"/>
</g>
<defs>
<clipPath id="clip0_52_72974">
<rect width="24" height="24" fill="white"/>
</clipPath>
</defs>
</svg>
