<svg width="24" height="24" viewBox="0 0 24 24" fill="none" xmlns="http://www.w3.org/2000/svg">
<path d="M7.71652 22.2858C11.5036 22.2858 14.5737 19.2157 14.5737 15.4286C14.5737 11.6415 11.5036 8.57147 7.71652 8.57147C3.92942 8.57147 0.859375 11.6415 0.859375 15.4286C0.859375 19.2157 3.92942 22.2858 7.71652 22.2858Z" stroke="#111330" stroke-linecap="round" stroke-linejoin="round"/>
<path d="M16.2868 22.2858C20.0739 22.2858 23.144 19.2157 23.144 15.4286C23.144 11.6415 20.0739 8.57147 16.2868 8.57147C12.4997 8.57147 9.42969 11.6415 9.42969 15.4286C9.42969 19.2157 12.4997 22.2858 16.2868 22.2858Z" stroke="#111330" stroke-linecap="round" stroke-linejoin="round"/>
<path d="M12.0017 15.4286C15.7888 15.4286 18.8588 12.3586 18.8588 8.5715C18.8588 4.7844 15.7888 1.71436 12.0017 1.71436C8.21458 1.71436 5.14453 4.7844 5.14453 8.5715C5.14453 12.3586 8.21458 15.4286 12.0017 15.4286Z" stroke="#111330" stroke-linecap="round" stroke-linejoin="round"/>
</svg>
