<svg width="50" height="50" viewBox="0 0 50 50" fill="none" xmlns="http://www.w3.org/2000/svg">
<circle cx="25" cy="25" r="25" fill="#EF5744"/>
<path d="M37.6803 30.397C38.6988 28.3095 39.131 26.2374 38.9657 24.2376C38.8004 22.2377 38.0315 20.2537 36.6812 18.3426C35.3244 16.4223 33.3342 14.5112 30.7638 12.6622C29.8792 12.0253 28.2014 11.1287 26.4475 10.5612C24.8945 10.0594 22.7108 9.63754 21.128 10.4813C19.7735 11.2035 19.1073 12.6754 19.1474 14.8551C19.1855 16.9943 20.0659 19.1941 21.835 21.5808C23.3518 23.6265 25.3285 25.5488 27.0728 27.2445C28.7683 28.8924 30.3698 30.4483 31.2108 31.7924C31.2227 31.8117 32.3596 33.7359 31.7071 35.6524C31.262 36.9648 30.0835 37.9942 28.2052 38.718C24.0863 40.0393 19.8509 38.0313 17.0217 36.1133C15.2151 34.8881 13.735 33.5421 12.8062 32.623C14.9937 33.0747 16.6334 32.6786 17.2881 32.4652C17.6586 32.9269 18.0522 33.3692 18.4674 33.7903C19.7887 35.1262 21.2268 36.1086 22.76 36.7204C22.8642 36.762 22.9805 36.76 23.0832 36.7149C23.1859 36.6698 23.2667 36.5853 23.3079 36.4799C23.349 36.3746 23.347 36.2571 23.3024 36.1532C23.2578 36.0493 23.1742 35.9676 23.07 35.926C21.1509 35.1606 19.3821 33.7587 17.8112 31.7599C17.7828 31.7088 17.7437 31.6645 17.6966 31.6303C17.6249 31.5573 16.7235 30.5688 16.4391 26.8087C17.6115 28.6403 19.4421 30.6085 21.6029 32.3254C24.4482 34.5866 27.3676 36.0102 29.4123 36.1337C29.4679 36.1375 29.5237 36.1301 29.5764 36.112C29.6292 36.0938 29.6778 36.0653 29.7196 36.0281C29.7614 35.9909 29.7955 35.9457 29.82 35.8951C29.8444 35.8444 29.8587 35.7894 29.862 35.7332C29.8654 35.677 29.8577 35.6207 29.8394 35.5675C29.8211 35.5143 29.7925 35.4653 29.7554 35.4233C29.7183 35.3813 29.6733 35.3471 29.6231 35.3228C29.5728 35.2984 29.5183 35.2844 29.4627 35.2814C27.5829 35.1679 24.8399 33.8119 22.1248 31.653C19.4001 29.488 17.2313 26.9322 16.3219 24.817C16.2829 24.7265 16.2142 24.6525 16.1274 24.6074C16.0405 24.5624 15.941 24.5492 15.8456 24.57C15.7502 24.5909 15.6649 24.6445 15.6042 24.7217C15.5434 24.799 15.5111 24.8951 15.5125 24.9938C15.5774 29.0468 16.262 30.9185 16.7342 31.7333C15.8535 31.9614 13.9423 32.2494 11.5654 31.3859C11.4775 31.3538 11.3815 31.3522 11.2925 31.3813C11.2035 31.4103 11.1266 31.4684 11.0738 31.5464C11.021 31.6245 10.9953 31.718 11.0007 31.8124C11.0062 31.9068 11.0425 31.9967 11.1039 32.068C11.1371 32.1066 11.454 32.4721 12.0037 33.028C12.9318 33.9663 14.5234 35.4466 16.5338 36.8107C18.4247 38.0946 20.2911 39.004 22.082 39.5127C24.3474 40.1578 26.4968 40.1624 28.4697 39.5266C30.1155 38.9971 31.6564 38.0139 33.0509 36.6039C35.1449 34.494 36.701 32.4046 37.6803 30.397ZM31.9629 31.4006C31.9553 31.3863 31.9484 31.3743 31.9434 31.367C31.9358 31.3531 31.9308 31.3458 31.9308 31.3458C31.0383 29.9153 29.397 28.3199 27.6596 26.6308C24.1042 23.1745 20.0747 19.2582 19.9934 14.8412C19.9598 13.01 20.4744 11.798 21.5235 11.2387C22.7291 10.5956 24.5433 10.8345 26.2658 11.3973C26.4361 11.818 26.8457 13.0505 26.3204 14.1066C25.8932 14.9663 24.925 15.5348 23.4434 15.8031C23.3887 15.8127 23.3363 15.8331 23.2894 15.8632C23.2425 15.8933 23.2019 15.9325 23.17 15.9784C23.1381 16.0244 23.1155 16.0763 23.1034 16.1311C23.0914 16.186 23.0901 16.2426 23.0998 16.298C23.1094 16.3533 23.1297 16.4062 23.1595 16.4536C23.1893 16.501 23.228 16.542 23.2735 16.5742C23.319 16.6065 23.3703 16.6294 23.4246 16.6416C23.4788 16.6538 23.5349 16.6551 23.5896 16.6454C24.9976 16.3925 26.0295 15.8772 26.6689 15.1102C28.1578 16.3624 30.621 18.5881 32.5657 21.1071C33.7454 22.6349 34.5601 24.0515 34.9869 25.318C35.4775 26.7732 35.4542 28.0385 34.9178 29.0788C34.8913 29.1286 34.8748 29.1832 34.8693 29.2395C34.8638 29.2957 34.8694 29.3526 34.8858 29.4066C34.9022 29.4607 34.9291 29.5109 34.9649 29.5544C35.0006 29.5978 35.0446 29.6337 35.0942 29.6599C35.1438 29.686 35.198 29.7019 35.2537 29.7067C35.3095 29.7115 35.3656 29.7051 35.4188 29.6877C35.4721 29.6704 35.5214 29.6426 35.5639 29.6058C35.6064 29.5691 35.6412 29.5242 35.6664 29.4737C36.8434 27.1909 36.0242 24.199 33.2315 20.5818C31.202 17.9531 28.6324 15.6448 27.1232 14.3826C27.5459 13.4447 27.4428 12.4561 27.2691 11.7659C28.4854 12.2562 29.5784 12.861 30.2732 13.3613C35.1717 16.887 37.8124 20.5714 38.122 24.3125C38.4274 28.003 36.5865 31.8151 32.4966 35.9654C32.5012 35.9523 32.5062 35.9395 32.5104 35.9268C33.2342 33.7868 32.1622 31.7491 31.9629 31.3987V31.4006Z" fill="white"/>
</svg>
