<svg width="173" height="50" viewBox="0 0 173 50" fill="none" xmlns="http://www.w3.org/2000/svg">
<circle cx="25" cy="25" r="25" fill="#EF5744"/>
<path d="M37.6803 30.397C38.6988 28.3095 39.131 26.2374 38.9657 24.2376C38.8004 22.2377 38.0315 20.2537 36.6812 18.3426C35.3244 16.4223 33.3342 14.5112 30.7638 12.6622C29.8792 12.0253 28.2014 11.1287 26.4475 10.5612C24.8945 10.0594 22.7108 9.63754 21.128 10.4813C19.7735 11.2035 19.1073 12.6754 19.1474 14.8551C19.1855 16.9943 20.0659 19.1941 21.835 21.5808C23.3518 23.6265 25.3285 25.5488 27.0728 27.2445C28.7683 28.8924 30.3698 30.4483 31.2108 31.7924C31.2227 31.8117 32.3596 33.7359 31.7071 35.6524C31.262 36.9648 30.0835 37.9942 28.2052 38.718C24.0863 40.0393 19.8509 38.0313 17.0217 36.1133C15.2151 34.8881 13.735 33.5421 12.8062 32.623C14.9937 33.0747 16.6334 32.6786 17.2881 32.4652C17.6586 32.9269 18.0522 33.3692 18.4674 33.7903C19.7887 35.1262 21.2268 36.1086 22.76 36.7204C22.8642 36.762 22.9805 36.76 23.0832 36.7149C23.1859 36.6698 23.2667 36.5853 23.3079 36.4799C23.349 36.3746 23.347 36.2571 23.3024 36.1532C23.2578 36.0493 23.1742 35.9676 23.07 35.926C21.1509 35.1606 19.3821 33.7587 17.8112 31.7599C17.7828 31.7088 17.7437 31.6645 17.6966 31.6303C17.6249 31.5573 16.7235 30.5688 16.4391 26.8087C17.6115 28.6403 19.4421 30.6085 21.6029 32.3254C24.4482 34.5866 27.3676 36.0102 29.4123 36.1337C29.4679 36.1375 29.5237 36.1301 29.5764 36.112C29.6292 36.0938 29.6778 36.0653 29.7196 36.0281C29.7614 35.9909 29.7955 35.9457 29.82 35.8951C29.8444 35.8444 29.8587 35.7894 29.862 35.7332C29.8654 35.677 29.8577 35.6207 29.8394 35.5675C29.8211 35.5143 29.7925 35.4653 29.7554 35.4233C29.7183 35.3813 29.6733 35.3471 29.6231 35.3228C29.5728 35.2984 29.5183 35.2844 29.4627 35.2814C27.5829 35.1679 24.8399 33.8119 22.1248 31.653C19.4001 29.488 17.2313 26.9322 16.3219 24.817C16.2829 24.7265 16.2142 24.6525 16.1274 24.6074C16.0405 24.5624 15.941 24.5492 15.8456 24.57C15.7502 24.5909 15.6649 24.6445 15.6042 24.7217C15.5434 24.799 15.5111 24.8951 15.5125 24.9938C15.5774 29.0468 16.262 30.9185 16.7342 31.7333C15.8535 31.9614 13.9423 32.2494 11.5654 31.3859C11.4775 31.3538 11.3815 31.3522 11.2925 31.3813C11.2035 31.4103 11.1266 31.4684 11.0738 31.5464C11.021 31.6245 10.9953 31.718 11.0007 31.8124C11.0062 31.9068 11.0425 31.9967 11.1039 32.068C11.1371 32.1066 11.454 32.4721 12.0037 33.028C12.9318 33.9663 14.5234 35.4466 16.5338 36.8107C18.4247 38.0946 20.2911 39.004 22.082 39.5127C24.3474 40.1578 26.4968 40.1624 28.4697 39.5266C30.1155 38.9971 31.6564 38.0139 33.0509 36.6039C35.1449 34.494 36.701 32.4046 37.6803 30.397ZM31.9629 31.4006C31.9553 31.3863 31.9484 31.3743 31.9434 31.367C31.9358 31.3531 31.9308 31.3458 31.9308 31.3458C31.0383 29.9153 29.397 28.3199 27.6596 26.6308C24.1042 23.1745 20.0747 19.2582 19.9934 14.8412C19.9598 13.01 20.4744 11.798 21.5235 11.2387C22.7291 10.5956 24.5433 10.8345 26.2658 11.3973C26.4361 11.818 26.8457 13.0505 26.3204 14.1066C25.8932 14.9663 24.925 15.5348 23.4434 15.8031C23.3887 15.8127 23.3363 15.8331 23.2894 15.8632C23.2425 15.8933 23.2019 15.9325 23.17 15.9784C23.1381 16.0244 23.1155 16.0763 23.1034 16.1311C23.0914 16.186 23.0901 16.2426 23.0998 16.298C23.1094 16.3533 23.1297 16.4062 23.1595 16.4536C23.1893 16.501 23.228 16.542 23.2735 16.5742C23.319 16.6065 23.3703 16.6294 23.4246 16.6416C23.4788 16.6538 23.5349 16.6551 23.5896 16.6454C24.9976 16.3925 26.0295 15.8772 26.6689 15.1102C28.1578 16.3624 30.621 18.5881 32.5657 21.1071C33.7454 22.6349 34.5601 24.0515 34.9869 25.318C35.4775 26.7732 35.4542 28.0385 34.9178 29.0788C34.8913 29.1286 34.8748 29.1832 34.8693 29.2395C34.8638 29.2957 34.8694 29.3526 34.8858 29.4066C34.9022 29.4607 34.9291 29.5109 34.9649 29.5544C35.0006 29.5978 35.0446 29.6337 35.0942 29.6599C35.1438 29.686 35.198 29.7019 35.2537 29.7067C35.3095 29.7115 35.3656 29.7051 35.4188 29.6877C35.4721 29.6704 35.5214 29.6426 35.5639 29.6058C35.6064 29.5691 35.6412 29.5242 35.6664 29.4737C36.8434 27.1909 36.0242 24.199 33.2315 20.5818C31.202 17.9531 28.6324 15.6448 27.1232 14.3826C27.5459 13.4447 27.4428 12.4561 27.2691 11.7659C28.4854 12.2562 29.5784 12.861 30.2732 13.3613C35.1717 16.887 37.8124 20.5714 38.122 24.3125C38.4274 28.003 36.5865 31.8151 32.4966 35.9654C32.5012 35.9523 32.5062 35.9395 32.5104 35.9268C33.2342 33.7868 32.1622 31.7491 31.9629 31.3987V31.4006Z" fill="white"/>
<path d="M73.016 33.392C71.8027 33.392 70.7107 33.2707 69.74 33.028C68.788 32.7853 67.9667 32.4213 67.276 31.936C66.604 31.4507 66.0813 30.844 65.708 30.116C65.3533 29.388 65.1573 28.548 65.12 27.596L68.704 26.504C68.7227 27.3627 68.9187 28.072 69.292 28.632C69.684 29.1733 70.2253 29.584 70.916 29.864C71.6067 30.1253 72.3813 30.256 73.24 30.256C74.0427 30.256 74.724 30.1533 75.284 29.948C75.8627 29.7427 76.292 29.472 76.572 29.136C76.8707 28.8 77.02 28.4267 77.02 28.016C77.02 27.5307 76.8333 27.1387 76.46 26.84C76.0867 26.5227 75.5733 26.2613 74.92 26.056C74.2853 25.8507 73.5573 25.6547 72.736 25.468C71.84 25.2627 70.9627 25.0293 70.104 24.768C69.2453 24.5067 68.4613 24.1707 67.752 23.76C67.0427 23.3493 66.4733 22.8267 66.044 22.192C65.6333 21.5387 65.428 20.708 65.428 19.7C65.428 18.58 65.708 17.6093 66.268 16.788C66.8467 15.948 67.6773 15.2947 68.76 14.828C69.8613 14.3613 71.1773 14.128 72.708 14.128C74.2573 14.128 75.5827 14.3613 76.684 14.828C77.804 15.2947 78.672 15.9573 79.288 16.816C79.904 17.656 80.2213 18.6547 80.24 19.812L76.6 20.764C76.6 20.1853 76.5067 19.6813 76.32 19.252C76.152 18.804 75.9 18.44 75.564 18.16C75.228 17.8613 74.8173 17.6373 74.332 17.488C73.8467 17.3387 73.296 17.264 72.68 17.264C71.952 17.264 71.3267 17.3573 70.804 17.544C70.3 17.7307 69.9173 17.9827 69.656 18.3C69.3947 18.5987 69.264 18.9627 69.264 19.392C69.264 19.896 69.46 20.3067 69.852 20.624C70.2627 20.9413 70.804 21.2027 71.476 21.408C72.1667 21.6133 72.932 21.8187 73.772 22.024C74.5747 22.192 75.3867 22.4067 76.208 22.668C77.048 22.9107 77.8227 23.2373 78.532 23.648C79.2413 24.0587 79.8107 24.6 80.24 25.272C80.6693 25.944 80.884 26.8027 80.884 27.848C80.884 28.9867 80.5853 29.9667 79.988 30.788C79.3907 31.6093 78.504 32.2533 77.328 32.72C76.1707 33.168 74.7333 33.392 73.016 33.392ZM90.4782 33.392C89.2462 33.392 88.1542 33.224 87.2022 32.888C86.2688 32.5333 85.4755 32.0387 84.8222 31.404C84.1875 30.7507 83.7022 29.9667 83.3662 29.052C83.0302 28.1187 82.8622 27.0733 82.8622 25.916C82.8622 24.7773 83.0208 23.7227 83.3382 22.752C83.6742 21.7627 84.1502 20.9133 84.7662 20.204C85.4008 19.476 86.1662 18.916 87.0622 18.524C87.9768 18.1133 89.0222 17.908 90.1982 17.908C91.3368 17.908 92.3355 18.0947 93.1942 18.468C94.0715 18.8413 94.7995 19.4013 95.3782 20.148C95.9568 20.876 96.3768 21.7627 96.6382 22.808C96.8995 23.8347 96.9835 25.02 96.8902 26.364L85.4942 26.476V24.264L94.4262 24.152L93.1662 25.328C93.2782 24.3387 93.2128 23.536 92.9702 22.92C92.7275 22.2853 92.3635 21.8187 91.8782 21.52C91.3928 21.2027 90.8422 21.044 90.2262 21.044C89.5168 21.044 88.9008 21.24 88.3782 21.632C87.8555 22.0053 87.4448 22.5467 87.1462 23.256C86.8662 23.9653 86.7262 24.824 86.7262 25.832C86.7262 27.4 87.0622 28.5573 87.7342 29.304C88.4248 30.0507 89.3395 30.424 90.4782 30.424C91.0008 30.424 91.4395 30.3587 91.7942 30.228C92.1488 30.0787 92.4382 29.892 92.6622 29.668C92.9048 29.444 93.0915 29.1827 93.2222 28.884C93.3528 28.5853 93.4555 28.2867 93.5302 27.988L97.0582 28.688C96.9462 29.36 96.7315 29.9853 96.4142 30.564C96.0968 31.124 95.6675 31.6187 95.1262 32.048C94.6035 32.4773 93.9595 32.804 93.1942 33.028C92.4288 33.2707 91.5235 33.392 90.4782 33.392ZM103.224 33.392C102.422 33.392 101.694 33.2427 101.04 32.944C100.406 32.6267 99.9016 32.16 99.5283 31.544C99.1549 30.928 98.9683 30.1627 98.9683 29.248C98.9683 28.4267 99.1269 27.7453 99.4443 27.204C99.7616 26.644 100.219 26.196 100.816 25.86C101.414 25.524 102.132 25.244 102.972 25.02C103.831 24.796 104.792 24.6093 105.856 24.46C106.51 24.348 107.032 24.2453 107.424 24.152C107.835 24.0587 108.134 23.9187 108.32 23.732C108.507 23.5453 108.6 23.2747 108.6 22.92C108.6 22.3787 108.404 21.9307 108.012 21.576C107.639 21.2027 107.051 21.016 106.248 21.016C105.726 21.016 105.231 21.1093 104.764 21.296C104.316 21.464 103.934 21.744 103.616 22.136C103.299 22.5093 103.084 23.004 102.972 23.62L99.3883 22.668C99.5749 21.828 99.8736 21.1187 100.284 20.54C100.695 19.9427 101.199 19.448 101.796 19.056C102.412 18.664 103.103 18.3747 103.868 18.188C104.652 18.0013 105.483 17.908 106.36 17.908C107.779 17.908 108.936 18.1413 109.832 18.608C110.747 19.0747 111.428 19.7933 111.876 20.764C112.324 21.7347 112.548 22.9667 112.548 24.46V26.98C112.548 27.6333 112.558 28.296 112.576 28.968C112.614 29.64 112.651 30.3213 112.688 31.012C112.726 31.684 112.772 32.3467 112.828 33H109.272C109.216 32.4773 109.16 31.908 109.104 31.292C109.048 30.676 109.011 30.0413 108.992 29.388H108.544C108.32 30.116 107.956 30.788 107.452 31.404C106.967 32.02 106.37 32.5053 105.66 32.86C104.951 33.2147 104.139 33.392 103.224 33.392ZM104.904 30.452C105.259 30.452 105.623 30.3867 105.996 30.256C106.37 30.1253 106.724 29.9387 107.06 29.696C107.415 29.4347 107.732 29.1173 108.012 28.744C108.292 28.352 108.507 27.904 108.656 27.4L108.628 25.356L109.272 25.44C108.974 25.6827 108.61 25.8787 108.18 26.028C107.751 26.1587 107.294 26.2707 106.808 26.364C106.342 26.4387 105.866 26.5227 105.38 26.616C104.914 26.6907 104.494 26.8027 104.12 26.952C103.747 27.1013 103.448 27.3067 103.224 27.568C103 27.8293 102.888 28.184 102.888 28.632C102.888 29.192 103.075 29.64 103.448 29.976C103.822 30.2933 104.307 30.452 104.904 30.452ZM124.677 33.392C123.744 33.392 122.932 33.2147 122.241 32.86C121.569 32.4867 121.018 31.9453 120.589 31.236C120.16 30.5267 119.861 29.6773 119.693 28.688H119.217V33H115.857V26.056V13.092H119.889V17.768C119.889 18.2347 119.852 18.7293 119.777 19.252C119.721 19.7747 119.646 20.3253 119.553 20.904C119.46 21.464 119.357 22.0427 119.245 22.64H119.805C120.029 21.6507 120.346 20.8107 120.757 20.12C121.186 19.4107 121.728 18.8693 122.381 18.496C123.053 18.1227 123.837 17.936 124.733 17.936C125.946 17.936 126.992 18.2533 127.869 18.888C128.746 19.504 129.428 20.3907 129.913 21.548C130.398 22.7053 130.641 24.0867 130.641 25.692C130.641 27.2787 130.398 28.6507 129.913 29.808C129.428 30.9467 128.737 31.8333 127.841 32.468C126.945 33.084 125.89 33.392 124.677 33.392ZM123.277 30.116C123.93 30.116 124.49 29.9293 124.957 29.556C125.442 29.1827 125.806 28.66 126.049 27.988C126.31 27.316 126.441 26.5413 126.441 25.664C126.441 24.7867 126.32 24.0213 126.077 23.368C125.834 22.696 125.48 22.1733 125.013 21.8C124.546 21.408 123.986 21.212 123.333 21.212C122.904 21.212 122.502 21.296 122.129 21.464C121.756 21.632 121.429 21.856 121.149 22.136C120.888 22.416 120.654 22.7427 120.449 23.116C120.262 23.4707 120.113 23.8533 120.001 24.264C119.908 24.656 119.861 25.048 119.861 25.44V25.888C119.861 26.3733 119.926 26.868 120.057 27.372C120.206 27.8573 120.421 28.3053 120.701 28.716C120.981 29.1267 121.336 29.4627 121.765 29.724C122.194 29.9853 122.698 30.116 123.277 30.116ZM138.312 33.392C136.613 33.392 135.334 32.8133 134.476 31.656C133.617 30.48 133.188 28.7067 133.188 26.336V18.3H137.248V25.888C137.248 27.3067 137.453 28.352 137.864 29.024C138.274 29.696 138.909 30.032 139.768 30.032C140.272 30.032 140.72 29.9013 141.112 29.64C141.504 29.3787 141.84 29.0147 142.12 28.548C142.4 28.0627 142.605 27.4933 142.736 26.84C142.885 26.1867 142.969 25.468 142.988 24.684V18.3H147.02V26.868V33H143.716L143.744 28.184H143.268C143.025 29.3973 142.689 30.3867 142.26 31.152C141.849 31.9173 141.317 32.4867 140.664 32.86C140.01 33.2147 139.226 33.392 138.312 33.392ZM155.822 33.392C154.608 33.392 153.544 33.084 152.63 32.468C151.734 31.8333 151.034 30.9373 150.53 29.78C150.026 28.6227 149.774 27.232 149.774 25.608C149.774 24.0773 149.998 22.7427 150.446 21.604C150.894 20.4467 151.547 19.5507 152.406 18.916C153.283 18.2627 154.356 17.936 155.626 17.936C156.578 17.936 157.38 18.1227 158.034 18.496C158.687 18.8507 159.219 19.3827 159.63 20.092C160.059 20.7827 160.386 21.632 160.61 22.64H161.198C161.086 22.024 160.974 21.4267 160.862 20.848C160.768 20.2507 160.684 19.6907 160.61 19.168C160.554 18.6453 160.526 18.1787 160.526 17.768V13.092H164.586V26.084V33H161.198V28.688H160.694C160.488 29.7333 160.171 30.6107 159.742 31.32C159.312 32.0107 158.771 32.5333 158.118 32.888C157.464 33.224 156.699 33.392 155.822 33.392ZM157.166 30.116C157.744 30.116 158.239 29.9853 158.65 29.724C159.079 29.4627 159.434 29.1267 159.714 28.716C159.994 28.2867 160.199 27.8293 160.33 27.344C160.479 26.84 160.554 26.3547 160.554 25.888V25.44C160.554 25.048 160.498 24.656 160.386 24.264C160.292 23.872 160.152 23.4987 159.966 23.144C159.779 22.7707 159.546 22.444 159.266 22.164C158.986 21.8653 158.659 21.632 158.286 21.464C157.931 21.296 157.539 21.212 157.11 21.212C156.456 21.212 155.896 21.408 155.43 21.8C154.963 22.1733 154.599 22.696 154.338 23.368C154.095 24.0213 153.974 24.7867 153.974 25.664C153.974 26.5413 154.104 27.316 154.366 27.988C154.627 28.66 154.991 29.1827 155.458 29.556C155.943 29.9293 156.512 30.116 157.166 30.116Z" fill="#111330"/>
<path d="M169.54 33.364C168.663 33.364 168.01 33.1773 167.58 32.804C167.151 32.4307 166.936 31.852 166.936 31.068C166.936 30.2653 167.151 29.6773 167.58 29.304C168.01 28.9307 168.663 28.744 169.54 28.744C170.436 28.744 171.099 28.9307 171.528 29.304C171.976 29.6773 172.2 30.2653 172.2 31.068C172.2 32.5987 171.314 33.364 169.54 33.364Z" fill="#EF5744"/>
</svg>
