<svg width="50" height="50" viewBox="0 0 50 50" fill="none" xmlns="http://www.w3.org/2000/svg">
<path d="M45.5056 8.23529C48.3146 11.4706 50 15 50 20.8824C50 31.1765 42.9775 40.2941 33.1461 45L30.618 41.1765C39.8876 35.8824 41.8539 29.1176 42.4157 24.7059C41.0112 25.5882 39.0449 25.8824 37.0787 25.5882C32.0225 25 28.0899 20.8824 28.0899 15.2941C28.0899 12.6471 29.2135 10 30.8989 7.94118C32.8652 5.88235 35.1124 5 37.9214 5C41.0112 5 43.8202 6.47059 45.5056 8.23529ZM17.4157 8.23529C20.2247 11.4706 21.9101 15 21.9101 20.8824C21.9101 31.1765 14.8876 40.2941 5.05618 45L2.52809 41.1765C11.7978 35.8823 13.764 29.1176 14.3258 24.7059C12.9214 25.5882 10.9551 25.8823 8.98877 25.5882C3.93259 25 7.60365e-06 20.8823 8.0734e-06 15.2941C8.29592e-06 12.6471 1.1236 10 2.809 7.94117C4.49439 5.88235 7.02248 5 9.83147 5C12.9214 5 15.7303 6.47058 17.4157 8.23529Z" fill="#EF5744"/>
</svg>
